<?xml version="1.0" encoding="UTF-8"?>
<!DOCTYPE svg PUBLIC "-//W3C//DTD SVG 1.1//EN" "http://www.w3.org/Graphics/SVG/1.1/DTD/svg11.dtd">
<svg xmlns="http://www.w3.org/2000/svg" version="1.1" width="460px" height="460px" style="shape-rendering:geometricPrecision; text-rendering:geometricPrecision; image-rendering:optimizeQuality; fill-rule:evenodd; clip-rule:evenodd" xmlns:xlink="http://www.w3.org/1999/xlink">
<g><path style="opacity:1" fill="#ed4858" d="M -0.5,-0.5 C 152.833,-0.5 306.167,-0.5 459.5,-0.5C 459.5,152.833 459.5,306.167 459.5,459.5C 406.5,459.5 353.5,459.5 300.5,459.5C 304.932,457.908 309.598,456.741 314.5,456C 319.463,454.379 323.963,451.879 328,448.5C 333.533,436.042 337.366,423.042 339.5,409.5C 341.104,405.1 341.771,400.434 341.5,395.5C 341.666,389.158 341.5,382.825 341,376.5C 339.482,372.151 336.982,368.484 333.5,365.5C 337.262,365.309 340.929,364.642 344.5,363.5C 354.487,361.642 364.153,362.809 373.5,367C 388.763,367.05 403.763,365.05 418.5,361C 425.718,356.782 431.218,350.948 435,343.5C 444.008,324.85 444.841,305.85 437.5,286.5C 436.617,277.533 436.284,268.533 436.5,259.5C 440.101,244.43 437.268,230.763 428,218.5C 419,209.5 410,200.5 401,191.5C 397.889,187.613 395.556,183.28 394,178.5C 390.955,174.244 387.788,170.077 384.5,166C 380.452,162.284 376.118,158.95 371.5,156C 365.247,154.796 358.914,154.129 352.5,154C 348.715,146.202 343.381,139.535 336.5,134C 323.329,126.751 309.329,121.751 294.5,119C 283.278,117.724 272.278,118.724 261.5,122C 251.749,126.718 241.749,130.551 231.5,133.5C 230.167,133.5 228.833,133.5 227.5,133.5C 198.253,128.717 177.086,139.384 164,165.5C 159.587,169.408 155.753,173.741 152.5,178.5C 151.833,178.833 151.167,179.167 150.5,179.5C 145.188,185.308 139.355,190.641 133,195.5C 131.827,199.337 129.827,202.671 127,205.5C 125.156,209.452 124.323,213.618 124.5,218C 125.587,226.506 126.587,235.006 127.5,243.5C 125.108,239.044 122.942,234.377 121,229.5C 120.037,219.905 118.537,210.405 116.5,201C 118.233,193.904 119.566,186.737 120.5,179.5C 121.326,175.018 121.826,170.351 122,165.5C 124.441,162.546 127.275,160.213 130.5,158.5C 134.269,156.649 138.103,154.983 142,153.5C 143.68,148.541 143.68,143.541 142,138.5C 141.34,136.676 140.173,135.343 138.5,134.5C 134.938,132.089 130.938,131.089 126.5,131.5C 120.969,131.239 115.969,132.572 111.5,135.5C 107.227,138.434 103.227,141.767 99.5,145.5C 97.4825,140.973 94.4825,137.139 90.5,134C 89.255,133.209 87.9217,132.709 86.5,132.5C 75.2235,130.942 63.8901,131.442 52.5,134C 42.5067,137.436 32.84,141.436 23.5,146C 20.5699,149.084 17.9032,152.251 15.5,155.5C 13.5902,158.452 12.5902,161.786 12.5,165.5C 10.8216,171.982 11.4883,178.316 14.5,184.5C 18.7184,196.757 25.3851,207.59 34.5,217C 39.7006,220.432 45.034,223.599 50.5,226.5C 51.7971,231.025 53.4637,235.359 55.5,239.5C 68.9637,278.813 90.1303,313.479 119,343.5C 120.324,347.323 122.824,349.989 126.5,351.5C 128.5,353.671 130.334,356.004 132,358.5C 133.451,360.464 135.284,361.797 137.5,362.5C 135.873,364.63 134.04,366.63 132,368.5C 131.333,370.167 131.333,371.833 132,373.5C 136.742,377.454 141.576,381.287 146.5,385C 159.133,391.483 172.133,397.149 185.5,402C 192.555,410.728 198.388,420.228 203,430.5C 207.259,436.688 211.259,443.021 215,449.5C 219.202,454.507 224.369,457.84 230.5,459.5C 153.5,459.5 76.5,459.5 -0.5,459.5C -0.5,306.167 -0.5,152.833 -0.5,-0.5 Z"/></g>
<g><path style="opacity:1" fill="#faf4f4" d="M 270.5,16.5 C 270.704,19.5176 271.037,22.5176 271.5,25.5C 268.794,25.5751 266.127,25.9084 263.5,26.5C 263.531,23.0412 264.198,19.7079 265.5,16.5C 267.167,15.3336 268.834,15.3336 270.5,16.5 Z"/></g>
<g><path style="opacity:1" fill="#bdb7b7" d="M 270.5,16.5 C 272.415,16.2155 274.081,16.5489 275.5,17.5C 274.5,17.5 273.5,17.5 272.5,17.5C 272.665,20.5184 272.498,23.5184 272,26.5C 269.281,27.4438 266.448,27.7771 263.5,27.5C 263.5,27.1667 263.5,26.8333 263.5,26.5C 266.127,25.9084 268.794,25.5751 271.5,25.5C 271.037,22.5176 270.704,19.5176 270.5,16.5 Z"/></g>
<g><path style="opacity:1" fill="#eceaea" d="M 275.5,17.5 C 290.672,20.0677 305.672,23.4011 320.5,27.5C 320.5,27.8333 320.5,28.1667 320.5,28.5C 312.046,28.2852 303.712,28.9518 295.5,30.5C 294.703,29.5218 294.036,29.8551 293.5,31.5C 294.772,38.7979 295.938,46.1312 297,53.5C 297.5,54 298,54.5 298.5,55C 307.149,54.7052 315.816,53.8719 324.5,52.5C 324.271,44.4594 323.604,36.4594 322.5,28.5C 323.5,28.5 324.5,28.5 325.5,28.5C 325.833,28.5 326.167,28.5 326.5,28.5C 326.334,33.5111 326.501,38.5111 327,43.5C 327.096,46.4512 327.929,49.1178 329.5,51.5C 337.743,51.4709 346.077,51.6376 354.5,52C 355.252,52.6708 355.586,53.5041 355.5,54.5C 341.967,55.6952 328.634,57.3619 315.5,59.5C 312.482,59.3354 309.482,59.502 306.5,60C 305.193,61.9435 305.193,63.7768 306.5,65.5C 306.46,68.8806 306.793,72.2139 307.5,75.5C 307.335,78.5184 307.502,81.5184 308,84.5C 308.383,85.056 308.883,85.3893 309.5,85.5C 311.833,85.5 314.167,85.5 316.5,85.5C 322.212,85.687 327.879,85.3537 333.5,84.5C 337.509,84.8583 341.509,85.3583 345.5,86C 332.245,88.2254 318.912,89.7254 305.5,90.5C 305.586,89.5041 305.252,88.6708 304.5,88C 301.806,88.6119 299.14,88.4452 296.5,87.5C 298.948,86.5269 301.615,86.1936 304.5,86.5C 304.216,78.447 303.383,70.447 302,62.5C 301.399,60.6412 300.566,60.3079 299.5,61.5C 293.184,62.3577 286.85,62.5244 280.5,62C 285.867,61.5966 291.201,60.93 296.5,60C 296.833,59.6667 297.167,59.3333 297.5,59C 296.299,58.0975 295.465,56.9308 295,55.5C 294.333,56.1667 293.667,56.8333 293,57.5C 292.329,56.7476 291.496,56.4142 290.5,56.5C 292.964,55.1734 293.964,53.0067 293.5,50C 293.299,46.2769 292.633,42.7769 291.5,39.5C 291.784,36.2234 291.451,33.0567 290.5,30C 281.481,29.9255 272.481,30.4255 263.5,31.5C 263.353,36.2142 263.686,40.8809 264.5,45.5C 263.778,45.0825 263.278,44.4158 263,43.5C 262.187,45.4357 261.687,47.4357 261.5,49.5C 260.518,46.0381 260.185,42.3714 260.5,38.5C 260.764,34.5075 261.764,30.8409 263.5,27.5C 266.448,27.7771 269.281,27.4438 272,26.5C 272.498,23.5184 272.665,20.5184 272.5,17.5C 273.5,17.5 274.5,17.5 275.5,17.5 Z"/></g>
<g><path style="opacity:1" fill="#fcfcfc" d="M 320.5,28.5 C 321.697,36.1418 322.697,43.8085 323.5,51.5C 315.134,52.0046 306.801,52.5046 298.5,53C 297.639,45.5162 296.639,38.0162 295.5,30.5C 303.712,28.9518 312.046,28.2852 320.5,28.5 Z"/></g>
<g><path style="opacity:1" fill="#fcfafa" d="M 330.5,29.5 C 343.165,32.4991 355.831,35.4991 368.5,38.5C 369.403,41.3915 369.736,44.3915 369.5,47.5C 356.212,49.0647 342.879,50.0647 329.5,50.5C 328.687,43.5157 328.02,36.5157 327.5,29.5C 328.5,29.5 329.5,29.5 330.5,29.5 Z"/></g>
<g><path style="opacity:1" fill="#c6c6c6" d="M 291.5,39.5 C 292.633,42.7769 293.299,46.2769 293.5,50C 293.964,53.0067 292.964,55.1734 290.5,56.5C 282.476,57.0532 274.476,57.5532 266.5,58C 265.419,53.9341 264.752,49.7674 264.5,45.5C 263.686,40.8809 263.353,36.2142 263.5,31.5C 272.481,30.4255 281.481,29.9255 290.5,30C 291.451,33.0567 291.784,36.2234 291.5,39.5 Z"/></g>
<g><path style="opacity:1" fill="#fbfbfb" d="M 291.5,39.5 C 291.822,44.4438 291.822,49.2771 291.5,54C 283.514,55.0319 275.514,55.8652 267.5,56.5C 265.924,48.8927 265.09,41.226 265,33.5C 273.118,32.4041 281.284,31.4041 289.5,30.5C 289.42,33.7814 290.087,36.7814 291.5,39.5 Z"/></g>
<g><path style="opacity:1" fill="#b4acad" d="M 260.5,38.5 C 260.185,42.3714 260.518,46.0381 261.5,49.5C 261.665,52.5184 261.498,55.5184 261,58.5C 259.644,59.3802 258.144,59.7135 256.5,59.5C 256.5,58.8333 256.5,58.1667 256.5,57.5C 257.833,57.5 259.167,57.5 260.5,57.5C 260.376,52.9515 259.709,48.6181 258.5,44.5C 258.595,42.2143 259.262,40.2143 260.5,38.5 Z"/></g>
<g><path style="opacity:1" fill="#f7eaeb" d="M 258.5,44.5 C 259.709,48.6181 260.376,52.9515 260.5,57.5C 259.167,57.5 257.833,57.5 256.5,57.5C 257.059,53.1474 257.725,48.814 258.5,44.5 Z"/></g>
<g><path style="opacity:1" fill="#808080" d="M 277.5,44.5 C 278.693,44.9704 279.36,45.9704 279.5,47.5C 279.333,48.5 279.167,49.5 279,50.5C 277.681,48.7505 277.181,46.7505 277.5,44.5 Z"/></g>
<g><path style="opacity:1" fill="#bfbebd" d="M 320.5,27.5 C 322.415,27.2155 324.081,27.5489 325.5,28.5C 324.5,28.5 323.5,28.5 322.5,28.5C 323.604,36.4594 324.271,44.4594 324.5,52.5C 315.816,53.8719 307.149,54.7052 298.5,55C 298,54.5 297.5,54 297,53.5C 295.938,46.1312 294.772,38.7979 293.5,31.5C 294.036,29.8551 294.703,29.5218 295.5,30.5C 296.639,38.0162 297.639,45.5162 298.5,53C 306.801,52.5046 315.134,52.0046 323.5,51.5C 322.697,43.8085 321.697,36.1418 320.5,28.5C 320.5,28.1667 320.5,27.8333 320.5,27.5 Z"/></g>
<g><path style="opacity:1" fill="#8d8d8d" d="M 309.5,41.5 C 310.725,42.1522 311.392,43.3189 311.5,45C 311.167,46.1667 310.833,47.3333 310.5,48.5C 310.106,46.4702 309.773,44.1369 309.5,41.5 Z"/></g>
<g><path style="opacity:1" fill="#bd4244" d="M 372.5,62.5 C 371.388,60.4006 370.721,58.0673 370.5,55.5C 363.745,55.2066 357.078,55.5399 350.5,56.5C 338.851,57.6982 327.185,58.6982 315.5,59.5C 328.634,57.3619 341.967,55.6952 355.5,54.5C 360.828,53.8516 366.162,53.6849 371.5,54C 372.444,56.7191 372.777,59.5525 372.5,62.5 Z"/></g>
<g><path style="opacity:1" fill="#b1383e" d="M 315.5,59.5 C 312.972,60.1657 310.306,60.8324 307.5,61.5C 306.754,62.7362 306.421,64.0695 306.5,65.5C 305.193,63.7768 305.193,61.9435 306.5,60C 309.482,59.502 312.482,59.3354 315.5,59.5 Z"/></g>
<g><path style="opacity:1" fill="#d81b1f" d="M 350.5,56.5 C 347.091,57.9034 343.425,58.5701 339.5,58.5C 339.5,59.5 339.5,60.5 339.5,61.5C 342.385,61.1936 345.052,61.5269 347.5,62.5C 345.712,62.2148 344.045,62.5481 342.5,63.5C 343.557,63.9059 344.891,63.9059 346.5,63.5C 346.046,66.1398 344.879,68.4732 343,70.5C 342.506,72.1341 342.34,73.8008 342.5,75.5C 341.677,72.023 341.177,68.3563 341,64.5C 340.667,64.1667 340.333,63.8333 340,63.5C 339.51,64.7932 339.343,66.1266 339.5,67.5C 338.566,66.4324 338.232,65.099 338.5,63.5C 336.473,63.3379 334.473,63.5045 332.5,64C 331.128,67.5409 331.294,71.0409 333,74.5C 334.699,75.4061 336.533,75.7394 338.5,75.5C 336.427,77.9882 334.093,77.9882 331.5,75.5C 330.818,76.2427 330.151,76.9094 329.5,77.5C 329.5,76.5 329.5,75.5 329.5,74.5C 328.167,74.5 326.833,74.5 325.5,74.5C 326.934,71.3016 327.434,67.9683 327,64.5C 325.506,63.2528 324.006,63.2528 322.5,64.5C 323.325,65.3857 324.325,65.719 325.5,65.5C 325.657,66.8734 325.49,68.2068 325,69.5C 323.374,70.9555 322.208,72.6221 321.5,74.5C 322.515,70.2697 321.515,66.4363 318.5,63C 321.226,62.8184 323.893,62.3184 326.5,61.5C 324.833,61.1667 323.167,60.8333 321.5,60.5C 317.133,61.0094 312.799,61.6761 308.5,62.5C 309.648,66.186 309.648,69.8527 308.5,73.5C 310.027,76.6596 310.693,79.993 310.5,83.5C 315.833,83.1667 321.167,82.8333 326.5,82.5C 324.5,83.1667 322.5,83.8333 320.5,84.5C 318.901,84.2322 317.568,84.5655 316.5,85.5C 314.167,85.5 311.833,85.5 309.5,85.5C 308.99,82.0172 308.323,78.6838 307.5,75.5C 306.793,72.2139 306.46,68.8806 306.5,65.5C 306.421,64.0695 306.754,62.7362 307.5,61.5C 310.306,60.8324 312.972,60.1657 315.5,59.5C 327.185,58.6982 338.851,57.6982 350.5,56.5 Z"/></g>
<g><path style="opacity:1" fill="#f8f8f8" d="M 264.5,45.5 C 264.752,49.7674 265.419,53.9341 266.5,58C 274.476,57.5532 282.476,57.0532 290.5,56.5C 291.496,56.4142 292.329,56.7476 293,57.5C 293.667,56.8333 294.333,56.1667 295,55.5C 295.465,56.9308 296.299,58.0975 297.5,59C 297.167,59.3333 296.833,59.6667 296.5,60C 291.201,60.93 285.867,61.5966 280.5,62C 286.85,62.5244 293.184,62.3577 299.5,61.5C 301.408,68.9344 302.742,76.6011 303.5,84.5C 295.494,85.6108 287.494,86.6108 279.5,87.5C 277.931,86.286 277.098,84.6193 277,82.5C 276.657,76.5512 275.824,70.7179 274.5,65C 277.277,62.8266 277.11,62.3266 274,63.5C 274.406,71.8522 275.24,80.1855 276.5,88.5C 283.148,87.8605 289.814,87.5272 296.5,87.5C 299.14,88.4452 301.806,88.6119 304.5,88C 305.252,88.6708 305.586,89.5041 305.5,90.5C 297.389,89.5994 294.389,92.9328 296.5,100.5C 295.5,100.5 294.5,100.5 293.5,100.5C 281.343,98.469 269.343,95.8023 257.5,92.5C 261.795,90.4011 266.462,89.2344 271.5,89C 272.108,87.769 272.441,86.4357 272.5,85C 271.594,77.8422 270.76,70.6756 270,63.5C 265.048,62.7697 260.214,62.4364 255.5,62.5C 255.263,61.209 255.596,60.209 256.5,59.5C 258.144,59.7135 259.644,59.3802 261,58.5C 261.498,55.5184 261.665,52.5184 261.5,49.5C 261.687,47.4357 262.187,45.4357 263,43.5C 263.278,44.4158 263.778,45.0825 264.5,45.5 Z"/></g>
<g><path style="opacity:1" fill="#e10e16" d="M 372.5,62.5 C 373.482,65.9619 373.815,69.6286 373.5,73.5C 373.5,74.8333 373.5,76.1667 373.5,77.5C 357.919,79.8238 342.252,81.4904 326.5,82.5C 321.167,82.8333 315.833,83.1667 310.5,83.5C 310.693,79.993 310.027,76.6596 308.5,73.5C 309.648,69.8527 309.648,66.186 308.5,62.5C 312.799,61.6761 317.133,61.0094 321.5,60.5C 323.167,60.8333 324.833,61.1667 326.5,61.5C 323.893,62.3184 321.226,62.8184 318.5,63C 321.515,66.4363 322.515,70.2697 321.5,74.5C 321.5,75.5 321.5,76.5 321.5,77.5C 324.167,77.5 326.833,77.5 329.5,77.5C 330.151,76.9094 330.818,76.2427 331.5,75.5C 334.093,77.9882 336.427,77.9882 338.5,75.5C 339.388,72.9455 339.721,70.2788 339.5,67.5C 339.343,66.1266 339.51,64.7932 340,63.5C 340.333,63.8333 340.667,64.1667 341,64.5C 341.177,68.3563 341.677,72.023 342.5,75.5C 344.801,74.9396 347.134,74.4396 349.5,74C 347.744,73.7978 346.078,73.2978 344.5,72.5C 346.051,70.1156 347.385,67.6156 348.5,65C 348.257,64.0979 347.923,63.2646 347.5,62.5C 345.052,61.5269 342.385,61.1936 339.5,61.5C 339.5,60.5 339.5,59.5 339.5,58.5C 343.425,58.5701 347.091,57.9034 350.5,56.5C 357.078,55.5399 363.745,55.2066 370.5,55.5C 370.721,58.0673 371.388,60.4006 372.5,62.5 Z"/></g>
<g><path style="opacity:1" fill="#fbfafa" d="M 250.5,90.5 C 249.414,90.38 248.747,89.7133 248.5,88.5C 250.629,80.5158 252.629,72.5158 254.5,64.5C 259.694,64.0119 264.528,64.0119 269,64.5C 269.643,72.4954 270.143,80.4954 270.5,88.5C 263.626,88.5207 256.959,89.1873 250.5,90.5 Z"/></g>
<g><path style="opacity:1" fill="#f8b0b0" d="M 352.5,61.5 C 354.262,61.3573 355.929,61.6906 357.5,62.5C 359.003,66.3553 359.67,70.3553 359.5,74.5C 356.927,74.8515 354.594,74.3515 352.5,73C 354.134,72.5065 355.801,72.3398 357.5,72.5C 356.594,69.5641 355.928,66.5641 355.5,63.5C 354.127,63.6567 352.793,63.49 351.5,63C 352.056,62.6174 352.389,62.1174 352.5,61.5 Z"/></g>
<g><path style="opacity:1" fill="#f6a8a9" d="M 329.5,77.5 C 326.833,77.5 324.167,77.5 321.5,77.5C 321.5,76.5 321.5,75.5 321.5,74.5C 322.208,72.6221 323.374,70.9555 325,69.5C 325.49,68.2068 325.657,66.8734 325.5,65.5C 324.325,65.719 323.325,65.3857 322.5,64.5C 324.006,63.2528 325.506,63.2528 327,64.5C 327.434,67.9683 326.934,71.3016 325.5,74.5C 326.833,74.5 328.167,74.5 329.5,74.5C 329.5,75.5 329.5,76.5 329.5,77.5 Z"/></g>
<g><path style="opacity:1" fill="#fabbba" d="M 339.5,67.5 C 339.721,70.2788 339.388,72.9455 338.5,75.5C 336.533,75.7394 334.699,75.4061 333,74.5C 331.294,71.0409 331.128,67.5409 332.5,64C 334.473,63.5045 336.473,63.3379 338.5,63.5C 338.232,65.099 338.566,66.4324 339.5,67.5 Z"/></g>
<g><path style="opacity:1" fill="#fbbfbd" d="M 347.5,62.5 C 347.923,63.2646 348.257,64.0979 348.5,65C 347.385,67.6156 346.051,70.1156 344.5,72.5C 346.078,73.2978 347.744,73.7978 349.5,74C 347.134,74.4396 344.801,74.9396 342.5,75.5C 342.34,73.8008 342.506,72.1341 343,70.5C 344.879,68.4732 346.046,66.1398 346.5,63.5C 344.891,63.9059 343.557,63.9059 342.5,63.5C 344.045,62.5481 345.712,62.2148 347.5,62.5 Z"/></g>
<g><path style="opacity:1" fill="#d83736" d="M 333.5,64.5 C 334.822,64.33 335.989,64.6634 337,65.5C 337.498,68.4816 337.665,71.4816 337.5,74.5C 336.178,74.67 335.011,74.3366 334,73.5C 333.502,70.5184 333.335,67.5184 333.5,64.5 Z"/></g>
<g><path style="opacity:1" fill="#c2666c" d="M 307.5,75.5 C 308.323,78.6838 308.99,82.0172 309.5,85.5C 308.883,85.3893 308.383,85.056 308,84.5C 307.502,81.5184 307.335,78.5184 307.5,75.5 Z"/></g>
<g><path style="opacity:1" fill="#dedada" d="M 326.5,28.5 C 328.099,28.2322 329.432,28.5655 330.5,29.5C 329.5,29.5 328.5,29.5 327.5,29.5C 328.02,36.5157 328.687,43.5157 329.5,50.5C 342.879,50.0647 356.212,49.0647 369.5,47.5C 369.736,44.3915 369.403,41.3915 368.5,38.5C 379.442,40.2356 390.109,42.9022 400.5,46.5C 395,70.8312 389.5,95.1645 384,119.5C 381.263,120.61 378.429,120.777 375.5,120C 367.778,118.319 360.111,116.486 352.5,114.5C 360.978,113.014 369.645,111.847 378.5,111C 379.167,110.333 379.833,109.667 380.5,109C 378.966,101.602 377.8,94.102 377,86.5C 376.023,85.2264 375.189,85.2264 374.5,86.5C 349.415,87.6084 324.415,89.7751 299.5,93C 298.328,93.4186 297.328,94.0853 296.5,95C 297.423,97.0408 297.756,99.2075 297.5,101.5C 295.901,101.768 294.568,101.434 293.5,100.5C 294.5,100.5 295.5,100.5 296.5,100.5C 294.389,92.9328 297.389,89.5994 305.5,90.5C 318.912,89.7254 332.245,88.2254 345.5,86C 341.509,85.3583 337.509,84.8583 333.5,84.5C 333.5,84.1667 333.5,83.8333 333.5,83.5C 346.863,82.3306 360.196,80.8306 373.5,79C 374.807,77.0565 374.807,75.2232 373.5,73.5C 373.815,69.6286 373.482,65.9619 372.5,62.5C 372.777,59.5525 372.444,56.7191 371.5,54C 366.162,53.6849 360.828,53.8516 355.5,54.5C 355.586,53.5041 355.252,52.6708 354.5,52C 346.077,51.6376 337.743,51.4709 329.5,51.5C 327.929,49.1178 327.096,46.4512 327,43.5C 326.501,38.5111 326.334,33.5111 326.5,28.5 Z"/></g>
<g><path style="opacity:1" fill="#8e8e8e" d="M 348.5,38.5 C 350.404,40.0441 351.238,42.0441 351,44.5C 349.681,42.7128 348.848,40.7128 348.5,38.5 Z"/></g>
<g><path style="opacity:1" fill="#93181d" d="M 373.5,73.5 C 374.807,75.2232 374.807,77.0565 373.5,79C 360.196,80.8306 346.863,82.3306 333.5,83.5C 329.176,83.9272 324.842,84.2605 320.5,84.5C 322.5,83.8333 324.5,83.1667 326.5,82.5C 342.252,81.4904 357.919,79.8238 373.5,77.5C 373.5,76.1667 373.5,74.8333 373.5,73.5 Z"/></g>
<g><path style="opacity:1" fill="#f4e228" d="M 158.5,83.5 C 159.675,83.281 160.675,83.6143 161.5,84.5C 164.673,89.3678 166.34,94.7011 166.5,100.5C 171.46,101.489 176.46,102.322 181.5,103C 183.592,103.953 183.925,105.286 182.5,107C 178.25,109.374 174.084,111.874 170,114.5C 164.184,145.125 158.684,144.792 153.5,113.5C 151.073,113.477 148.74,112.977 146.5,112C 143.962,110.369 141.295,109.036 138.5,108C 139.167,107 139.833,106 140.5,105C 145.361,103.159 150.195,101.325 155,99.5C 156.121,94.1455 157.288,88.8121 158.5,83.5 Z"/></g>
<g><path style="opacity:1" fill="#d3a2a6" d="M 333.5,83.5 C 333.5,83.8333 333.5,84.1667 333.5,84.5C 327.879,85.3537 322.212,85.687 316.5,85.5C 317.568,84.5655 318.901,84.2322 320.5,84.5C 324.842,84.2605 329.176,83.9272 333.5,83.5 Z"/></g>
<g><path style="opacity:1" fill="#c2c2c2" d="M 299.5,61.5 C 300.566,60.3079 301.399,60.6412 302,62.5C 303.383,70.447 304.216,78.447 304.5,86.5C 301.615,86.1936 298.948,86.5269 296.5,87.5C 289.814,87.5272 283.148,87.8605 276.5,88.5C 275.24,80.1855 274.406,71.8522 274,63.5C 277.11,62.3266 277.277,62.8266 274.5,65C 275.824,70.7179 276.657,76.5512 277,82.5C 277.098,84.6193 277.931,86.286 279.5,87.5C 287.494,86.6108 295.494,85.6108 303.5,84.5C 302.742,76.6011 301.408,68.9344 299.5,61.5 Z"/></g>
<g><path style="opacity:1" fill="#fcfbfb" d="M 374.5,86.5 C 376.897,93.95 377.897,101.617 377.5,109.5C 367.213,110.825 356.879,111.825 346.5,112.5C 343.37,112.3 340.37,111.634 337.5,110.5C 338.806,109.032 340.306,107.699 342,106.5C 342.308,107.308 342.808,107.975 343.5,108.5C 344.452,106.955 344.785,105.288 344.5,103.5C 342.523,104.149 340.69,104.149 339,103.5C 337.51,104.682 336.177,105.682 335,106.5C 334.667,106.167 334.333,105.833 334,105.5C 333.51,106.793 333.343,108.127 333.5,109.5C 321.291,107.725 309.291,105.058 297.5,101.5C 297.756,99.2075 297.423,97.0408 296.5,95C 297.328,94.0853 298.328,93.4186 299.5,93C 324.415,89.7751 349.415,87.6084 374.5,86.5 Z"/></g>
<g><path style="opacity:1" fill="#c7c4c5" d="M 255.5,62.5 C 260.214,62.4364 265.048,62.7697 270,63.5C 270.76,70.6756 271.594,77.8422 272.5,85C 272.441,86.4357 272.108,87.769 271.5,89C 266.462,89.2344 261.795,90.4011 257.5,92.5C 255.035,92.233 252.701,91.5664 250.5,90.5C 256.959,89.1873 263.626,88.5207 270.5,88.5C 270.143,80.4954 269.643,72.4954 269,64.5C 264.528,64.0119 259.694,64.0119 254.5,64.5C 254.328,63.5084 254.662,62.8417 255.5,62.5 Z"/></g>
<g><path style="opacity:1" fill="#c2bdbd" d="M 337.5,110.5 C 336.041,110.567 334.708,110.234 333.5,109.5C 333.343,108.127 333.51,106.793 334,105.5C 334.333,105.833 334.667,106.167 335,106.5C 336.177,105.682 337.51,104.682 339,103.5C 340.69,104.149 342.523,104.149 344.5,103.5C 344.785,105.288 344.452,106.955 343.5,108.5C 342.808,107.975 342.308,107.308 342,106.5C 340.306,107.699 338.806,109.032 337.5,110.5 Z"/></g>
<g><path style="opacity:1" fill="#bebaba" d="M 374.5,86.5 C 375.189,85.2264 376.023,85.2264 377,86.5C 377.8,94.102 378.966,101.602 380.5,109C 379.833,109.667 379.167,110.333 378.5,111C 369.645,111.847 360.978,113.014 352.5,114.5C 350.302,114.125 348.302,113.458 346.5,112.5C 356.879,111.825 367.213,110.825 377.5,109.5C 377.897,101.617 376.897,93.95 374.5,86.5 Z"/></g>
<g><path style="opacity:1" fill="#f4d423" d="M 344.5,363.5 C 340.929,364.642 337.262,365.309 333.5,365.5C 326.181,363.501 318.847,361.501 311.5,359.5C 313.139,358.527 314.473,357.194 315.5,355.5C 315.953,354.542 316.619,353.708 317.5,353C 325.503,350.249 332.67,346.082 339,340.5C 354.355,345.474 369.188,343.974 383.5,336C 386.051,332.956 388.384,329.789 390.5,326.5C 394.284,322.351 396.451,317.351 397,311.5C 399.767,291.106 390.933,280.106 370.5,278.5C 370.5,277.5 370.5,276.5 370.5,275.5C 369.178,275.33 368.011,275.663 367,276.5C 366.492,274.096 365.325,273.429 363.5,274.5C 361.909,272.367 359.909,270.701 357.5,269.5C 355.665,271.767 353.665,271.767 351.5,269.5C 352.758,270.016 353.758,269.35 354.5,267.5C 353.975,266.808 353.308,266.308 352.5,266C 353.623,262.944 352.956,262.778 350.5,265.5C 351.855,266.675 351.688,267.675 350,268.5C 349.355,267.354 348.522,266.354 347.5,265.5C 348.59,263.638 349.59,261.805 350.5,260C 349.874,259.25 349.374,258.416 349,257.5C 348.667,257.833 348.333,258.167 348,258.5C 347.51,257.207 347.343,255.873 347.5,254.5C 346.127,254.657 344.793,254.49 343.5,254C 343.833,253.667 344.167,253.333 344.5,253C 342.968,252.3 341.968,251.134 341.5,249.5C 341.701,247.352 342.034,245.186 342.5,243C 341.103,241.039 340.103,238.872 339.5,236.5C 339.632,234.399 340.632,232.899 342.5,232C 341.789,230.745 340.956,229.579 340,228.5C 339.821,224.975 339.321,221.641 338.5,218.5C 338.567,217.041 338.234,215.708 337.5,214.5C 337.857,212.411 338.523,210.411 339.5,208.5C 340.451,209.326 341.451,209.492 342.5,209C 341.911,207.127 342.578,205.46 344.5,204C 342.714,203.215 341.214,202.049 340,200.5C 339.667,201.833 339.333,203.167 339,204.5C 337.602,205.051 336.268,205.384 335,205.5C 334.732,203.41 335.732,202.076 338,201.5C 338.749,200.365 338.583,199.365 337.5,198.5C 335.614,199.85 334.114,201.517 333,203.5C 332.86,200.957 332.194,198.623 331,196.5C 330.085,197.328 329.419,198.328 329,199.5C 328.167,198 327,196.833 325.5,196C 325.957,195.586 326.291,195.086 326.5,194.5C 325.349,193.269 324.183,193.269 323,194.5C 322.581,193.328 321.915,192.328 321,191.5C 320.805,193.207 320.805,194.874 321,196.5C 318.54,195.245 317.373,193.245 317.5,190.5C 316.127,190.657 314.793,190.49 313.5,190C 318.058,184.169 316.892,183.002 310,186.5C 308.354,185.221 307.187,183.555 306.5,181.5C 306.306,183.042 305.139,184.375 303,185.5C 301.176,184.251 301.343,183.085 303.5,182C 302.24,180.887 301.073,180.72 300,181.5C 299.316,180.216 299.483,179.049 300.5,178C 297.939,178.401 295.272,178.235 292.5,177.5C 292.852,180.073 292.352,182.406 291,184.5C 290.517,183.552 290.351,182.552 290.5,181.5C 288.876,181.64 287.71,180.973 287,179.5C 284.566,181.762 281.732,183.095 278.5,183.5C 274.054,184.306 270.221,186.306 267,189.5C 265.621,193.848 263.787,197.848 261.5,201.5C 259.549,201.227 258.049,201.893 257,203.5C 256.517,202.552 256.351,201.552 256.5,200.5C 255.5,200.5 254.5,200.5 253.5,200.5C 253.5,201.5 253.5,202.5 253.5,203.5C 251.176,203.995 249.009,203.995 247,203.5C 245.441,204.029 243.941,204.696 242.5,205.5C 241.833,204.167 241.167,202.833 240.5,201.5C 239.614,202.325 239.281,203.325 239.5,204.5C 237.856,204.714 236.356,204.38 235,203.5C 234.5,204.667 233.667,205.5 232.5,206C 234.973,207.925 234.973,209.758 232.5,211.5C 232.64,209.744 232.14,208.078 231,206.5C 229.594,207.668 228.428,207.335 227.5,205.5C 226.095,206.994 224.429,207.994 222.5,208.5C 214.701,206.713 208.701,209.046 204.5,215.5C 200.361,216.921 197.861,219.921 197,224.5C 195.915,223.707 194.748,223.04 193.5,222.5C 191.629,223.767 189.796,223.767 188,222.5C 188.195,224.126 188.195,225.793 188,227.5C 187.333,226.167 186.333,225.167 185,224.5C 184.383,225.449 184.549,226.282 185.5,227C 180.279,227.542 180.279,228.376 185.5,229.5C 184.675,230.386 183.675,230.719 182.5,230.5C 182.728,232.355 182.061,233.188 180.5,233C 181.93,231.12 181.596,229.62 179.5,228.5C 178.568,230.766 177.234,232.766 175.5,234.5C 173.064,233.109 172.398,233.609 173.5,236C 172.257,237.154 171.257,238.488 170.5,240C 175.796,241.438 175.796,242.605 170.5,243.5C 169.079,247.748 167.079,251.748 164.5,255.5C 164.808,256.308 165.308,256.975 166,257.5C 166.499,261.486 166.666,265.486 166.5,269.5C 166.707,279.835 165.207,289.835 162,299.5C 161.244,306.217 161.411,312.883 162.5,319.5C 163.055,322.096 164.055,324.429 165.5,326.5C 166.298,330.089 167.631,333.422 169.5,336.5C 168.833,336.5 168.5,336.833 168.5,337.5C 164.299,330.397 160.132,323.063 156,315.5C 148.469,298.571 141.136,281.571 134,264.5C 132.648,261.28 131.814,257.947 131.5,254.5C 133.194,255.686 134.861,255.519 136.5,254C 137.833,253 137.833,252 136.5,251C 139.26,248.097 138.76,247.264 135,248.5C 133.72,248.387 132.887,247.72 132.5,246.5C 132.846,245.304 133.346,245.304 134,246.5C 134.311,244.444 134.811,242.444 135.5,240.5C 134.91,239.201 133.91,238.368 132.5,238C 133.833,237.333 133.833,236.667 132.5,236C 136.5,235.333 136.5,234.667 132.5,234C 133.198,233.029 133.198,231.863 132.5,230.5C 132.785,228.431 133.952,227.098 136,226.5C 137.566,230.235 138.733,230.235 139.5,226.5C 139.563,224.519 138.896,222.852 137.5,221.5C 137.846,220.304 138.346,220.304 139,221.5C 139.49,220.207 139.657,218.873 139.5,217.5C 138.448,217.649 137.448,217.483 136.5,217C 140.033,217.132 142.033,215.465 142.5,212C 140.754,211.529 139.087,210.862 137.5,210C 139.432,208.648 140.766,206.815 141.5,204.5C 139.163,201.911 137.496,199.411 136.5,197C 138.059,195.244 139.726,195.244 141.5,197C 140.549,197.718 140.383,198.551 141,199.5C 142.319,197.75 142.819,195.75 142.5,193.5C 143.552,193.649 144.552,193.483 145.5,193C 146.45,190.133 148.117,187.8 150.5,186C 149.692,185.692 149.025,185.192 148.5,184.5C 150.005,183.158 150.672,181.492 150.5,179.5C 151.167,179.167 151.833,178.833 152.5,178.5C 154.711,177.963 156.711,176.963 158.5,175.5C 159.689,175.756 160.856,176.089 162,176.5C 164.319,175.129 166.819,174.462 169.5,174.5C 169.201,172.396 169.534,170.396 170.5,168.5C 175.478,169.547 175.478,168.714 170.5,166C 173.217,164.967 175.051,165.8 176,168.5C 176.483,167.552 176.649,166.552 176.5,165.5C 178.39,165.703 179.89,165.037 181,163.5C 181.308,164.308 181.808,164.975 182.5,165.5C 186.302,163.238 190.136,160.905 194,158.5C 194.333,158.833 194.667,159.167 195,159.5C 195.333,157.833 195.667,156.167 196,154.5C 200.903,155.291 204.403,153.291 206.5,148.5C 207.72,147.289 208.887,147.289 210,148.5C 212.109,144.86 215.276,142.86 219.5,142.5C 220.711,141.726 220.711,140.893 219.5,140C 220.793,139.51 222.127,139.343 223.5,139.5C 223.67,138.178 223.337,137.011 222.5,136C 224.175,135.015 225.842,134.181 227.5,133.5C 228.833,133.5 230.167,133.5 231.5,133.5C 233.927,134.279 233.927,135.446 231.5,137C 224.458,137.714 224.124,138.714 230.5,140C 229.289,140.893 229.289,141.726 230.5,142.5C 231.251,141.624 231.751,140.624 232,139.5C 233.65,139.932 235.15,141.265 236.5,143.5C 237.768,142.572 239.101,142.405 240.5,143C 237.972,143.669 237.972,144.502 240.5,145.5C 242.069,144.286 242.902,142.619 243,140.5C 244.851,143.064 246.684,143.064 248.5,140.5C 249.451,141.326 250.451,141.492 251.5,141C 254.472,138.474 254.805,135.807 252.5,133C 253.766,132.691 254.933,132.191 256,131.5C 256.807,135.397 258.474,136.063 261,133.5C 263.597,133.904 266.097,133.904 268.5,133.5C 270.037,130.511 272.037,128.678 274.5,128C 276.464,127.376 278.131,127.876 279.5,129.5C 280.354,128.478 281.354,127.645 282.5,127C 286.186,126.441 289.853,125.774 293.5,125C 293.167,124.667 292.833,124.333 292.5,124C 293.416,123.626 294.25,123.126 295,122.5C 297.368,124.274 299.868,125.941 302.5,127.5C 302.833,127.167 303.167,126.833 303.5,126.5C 300.879,124.128 301.212,123.462 304.5,124.5C 305.167,125.833 305.833,127.167 306.5,128.5C 307.086,128.291 307.586,127.957 308,127.5C 308.112,130.447 309.612,131.78 312.5,131.5C 312.651,134.718 313.484,135.051 315,132.5C 314.612,136.125 315.446,139.625 317.5,143C 316.199,144.939 316.865,146.106 319.5,146.5C 320.167,145.833 320.833,145.167 321.5,144.5C 322.7,145.531 324.034,146.365 325.5,147C 323.968,147.7 322.968,148.866 322.5,150.5C 323.995,150.478 325.662,150.811 327.5,151.5C 326.355,152.891 326.355,154.224 327.5,155.5C 330.603,153.985 333.603,152.318 336.5,150.5C 336.833,150.833 337.167,151.167 337.5,151.5C 336.248,153.001 335.248,154.668 334.5,156.5C 333.676,154.252 332.676,154.086 331.5,156C 330.756,158.483 330.756,161.149 331.5,164C 336.383,164.868 336.717,164.035 332.5,161.5C 333,161.167 333.5,160.833 334,160.5C 338.256,162.949 342.256,165.615 346,168.5C 349.267,168.304 351.934,166.97 354,164.5C 354.333,164.833 354.667,165.167 355,165.5C 357.126,163.623 359.626,162.623 362.5,162.5C 362.329,165.797 362.995,166.131 364.5,163.5C 364.833,164.167 365.167,164.833 365.5,165.5C 367.588,162.219 369.588,162.052 371.5,165C 373.997,165.412 375.997,166.578 377.5,168.5C 376.263,169.281 375.263,170.281 374.5,171.5C 374.833,171.833 375.167,172.167 375.5,172.5C 377.009,170.085 378.676,169.919 380.5,172C 378,172.833 377.833,174 380,175.5C 381.494,174.253 382.994,174.253 384.5,175.5C 384.291,176.086 383.957,176.586 383.5,177C 387.492,177.808 389.992,180.308 391,184.5C 391.333,183.833 391.667,183.167 392,182.5C 392.5,184.333 393.667,185.5 395.5,186C 394.026,187.316 392.359,188.316 390.5,189C 392.167,189.333 393.833,189.667 395.5,190C 396.337,191.011 396.67,192.178 396.5,193.5C 397.822,193.67 398.989,193.337 400,192.5C 400.667,193.833 401.667,194.833 403,195.5C 403.606,197.829 402.94,198.162 401,196.5C 399.72,196.613 398.887,197.28 398.5,198.5C 400.006,199.747 401.506,199.747 403,198.5C 403.456,199.744 402.956,200.577 401.5,201C 403.394,202.101 404.061,203.434 403.5,205C 407.655,205.334 408.989,207.334 407.5,211C 409.167,211.333 410.833,211.667 412.5,212C 410.65,215.466 411.65,217.299 415.5,217.5C 415.66,219.199 415.494,220.866 415,222.5C 414.08,222.93 413.247,223.264 412.5,223.5C 416.19,225.051 416.19,226.884 412.5,229C 413,229.167 413.5,229.333 414,229.5C 418.18,225.354 419.013,225.854 416.5,231C 416.99,232.982 417.99,234.649 419.5,236C 416.986,238.067 417.152,239.567 420,240.5C 421.363,238.216 422.863,238.049 424.5,240C 422.202,241.086 420.202,242.586 418.5,244.5C 422.125,245.643 422.291,246.976 419,248.5C 418.333,249.167 418.333,249.833 419,250.5C 424.216,251.645 424.55,253.312 420,255.5C 419.333,256.167 419.333,256.833 420,257.5C 421.183,256.269 422.349,256.269 423.5,257.5C 421.374,258.901 419.707,260.734 418.5,263C 418.833,263.5 419.167,264 419.5,264.5C 421.28,261.078 422.28,261.744 422.5,266.5C 420.801,266.34 419.134,266.506 417.5,267C 418.126,267.75 418.626,268.584 419,269.5C 419.914,268.346 420.747,268.513 421.5,270C 420.269,271.183 420.269,272.349 421.5,273.5C 421.833,272.833 422.167,272.167 422.5,271.5C 423.429,272.689 423.762,274.022 423.5,275.5C 420.757,275.077 419.424,276.244 419.5,279C 419.493,280.812 420.16,282.312 421.5,283.5C 418.567,285.738 418.901,286.738 422.5,286.5C 422.5,287.5 422.5,288.5 422.5,289.5C 421.448,289.351 420.448,289.517 419.5,290C 420.833,291 420.833,292 419.5,293C 420.742,293.311 421.742,292.811 422.5,291.5C 423.5,291.833 424.167,292.5 424.5,293.5C 423.271,294.281 421.938,294.781 420.5,295C 423.167,296 423.167,297 420.5,298C 425.193,298.816 425.526,300.316 421.5,302.5C 422.274,303.711 423.107,303.711 424,302.5C 424.98,304.059 425.813,305.726 426.5,307.5C 427.799,306.91 428.632,305.91 429,304.5C 429.825,306.701 429.325,308.534 427.5,310C 428.448,310.483 429.448,310.649 430.5,310.5C 430.376,314.389 431.709,317.722 434.5,320.5C 433.015,321.172 431.849,320.506 431,318.5C 428.833,320 429,321.167 431.5,322C 431.167,322.333 430.833,322.667 430.5,323C 428.82,323.034 427.32,323.201 426,323.5C 425.549,321.071 424.715,320.904 423.5,323C 425.251,324.549 426.917,325.382 428.5,325.5C 427.335,326.584 426.002,327.417 424.5,328C 424.833,328.333 425.167,328.667 425.5,329C 423.754,329.471 422.087,330.138 420.5,331C 422.205,334.25 423.705,334.084 425,330.5C 426.722,332.695 428.556,334.028 430.5,334.5C 429.349,335.731 428.183,335.731 427,334.5C 425.66,335.868 424.326,337.201 423,338.5C 422.228,338.355 421.561,338.022 421,337.5C 421.148,338.825 420.982,339.992 420.5,341C 421.167,341.667 421.833,342.333 422.5,343C 420.833,344 419.5,345.333 418.5,347C 419.742,347.311 420.742,346.811 421.5,345.5C 422.583,346.365 422.749,347.365 422,348.5C 418.895,350.694 416.228,353.36 414,356.5C 414.034,352.886 412.367,350.553 409,349.5C 407.983,351.376 407.149,353.376 406.5,355.5C 405.713,354.758 405.047,353.925 404.5,353C 406.107,351.951 406.773,350.451 406.5,348.5C 405.5,348.5 404.5,348.5 403.5,348.5C 402.744,350.613 402.577,352.613 403,354.5C 401.742,351.945 399.909,351.278 397.5,352.5C 398.836,354.375 398.336,355.708 396,356.5C 395.517,355.552 395.351,354.552 395.5,353.5C 394.178,353.33 393.011,353.663 392,354.5C 391.29,353.027 390.124,352.36 388.5,352.5C 388.587,355.598 388.087,355.932 387,353.5C 384.912,354.308 382.912,355.308 381,356.5C 378.918,354.348 379.084,353.681 381.5,354.5C 382.5,354.167 383.167,353.5 383.5,352.5C 380.732,351.665 377.898,350.998 375,350.5C 375.052,352.911 375.385,355.244 376,357.5C 375.311,356.643 374.478,355.977 373.5,355.5C 371.391,356.65 369.391,357.984 367.5,359.5C 366.304,359.154 366.304,358.654 367.5,358C 366.234,357.691 365.067,357.191 364,356.5C 364,357.833 364,359.167 364,360.5C 361.827,357.723 361.327,357.89 362.5,361C 362,361.167 361.5,361.333 361,361.5C 356.272,361.71 351.439,361.377 346.5,360.5C 345.575,361.357 344.908,362.357 344.5,363.5 Z"/></g>
<g><path style="opacity:1" fill="#f4c31d" d="M 227.5,133.5 C 225.842,134.181 224.175,135.015 222.5,136C 223.337,137.011 223.67,138.178 223.5,139.5C 222.127,139.343 220.793,139.51 219.5,140C 220.711,140.893 220.711,141.726 219.5,142.5C 215.276,142.86 212.109,144.86 210,148.5C 208.887,147.289 207.72,147.289 206.5,148.5C 204.403,153.291 200.903,155.291 196,154.5C 195.667,156.167 195.333,157.833 195,159.5C 194.667,159.167 194.333,158.833 194,158.5C 190.136,160.905 186.302,163.238 182.5,165.5C 181.808,164.975 181.308,164.308 181,163.5C 179.89,165.037 178.39,165.703 176.5,165.5C 176.649,166.552 176.483,167.552 176,168.5C 175.051,165.8 173.217,164.967 170.5,166C 175.478,168.714 175.478,169.547 170.5,168.5C 169.534,170.396 169.201,172.396 169.5,174.5C 166.819,174.462 164.319,175.129 162,176.5C 160.856,176.089 159.689,175.756 158.5,175.5C 156.711,176.963 154.711,177.963 152.5,178.5C 155.753,173.741 159.587,169.408 164,165.5C 177.086,139.384 198.253,128.717 227.5,133.5 Z"/></g>
<g><path style="opacity:1" fill="#fbe4e2" d="M 86.5,132.5 C 87.9217,132.709 89.255,133.209 90.5,134C 94.4825,137.139 97.4825,140.973 99.5,145.5C 103.227,141.767 107.227,138.434 111.5,135.5C 117.006,134.824 117.673,135.991 113.5,139C 118.078,141.212 120.578,144.712 121,149.5C 118.672,145.555 116.839,145.888 115.5,150.5C 112.26,148.809 110.26,149.809 109.5,153.5C 110.505,156.556 112.505,159.389 115.5,162C 116.793,162.49 118.127,162.657 119.5,162.5C 120.292,168.13 120.625,173.797 120.5,179.5C 119.566,186.737 118.233,193.904 116.5,201C 118.537,210.405 120.037,219.905 121,229.5C 122.942,234.377 125.108,239.044 127.5,243.5C 128.438,247.313 129.771,250.979 131.5,254.5C 131.814,257.947 132.648,261.28 134,264.5C 141.136,281.571 148.469,298.571 156,315.5C 160.132,323.063 164.299,330.397 168.5,337.5C 161.083,344.744 153.416,351.911 145.5,359C 143.296,361.234 140.63,362.401 137.5,362.5C 135.284,361.797 133.451,360.464 132,358.5C 130.334,356.004 128.5,353.671 126.5,351.5C 127.347,350.034 128.68,349.2 130.5,349C 129.167,348.333 129.167,347.667 130.5,347C 127.626,345.666 124.959,344.833 122.5,344.5C 123.687,343.481 124.687,342.314 125.5,341C 124.366,339.984 124.699,339.317 126.5,339C 126,338.5 125.5,338 125,337.5C 123.612,338.554 122.112,338.72 120.5,338C 122.304,334.196 121.304,331.363 117.5,329.5C 118.167,329.167 118.833,328.833 119.5,328.5C 118.869,326.522 118.869,324.355 119.5,322C 118.451,321.508 117.451,321.674 116.5,322.5C 115.77,321.066 114.77,319.9 113.5,319C 114.34,317.334 113.84,317.167 112,318.5C 112.305,316.557 112.305,314.557 112,312.5C 111.259,313.641 110.425,313.641 109.5,312.5C 108.358,310.197 107.025,308.03 105.5,306C 105.82,304.347 106.82,303.347 108.5,303C 107.687,301.686 106.687,300.519 105.5,299.5C 105.709,298.914 106.043,298.414 106.5,298C 104.924,295.033 102.757,292.533 100,290.5C 99.4815,285.441 96.9815,283.441 92.5,284.5C 96.1244,281.507 96.1244,278.674 92.5,276C 94.9659,275.07 94.7993,274.237 92,273.5C 89.4226,275.126 88.4226,274.46 89,271.5C 89.9138,272.654 90.7471,272.487 91.5,271C 87.1318,270.043 83.1318,268.543 79.5,266.5C 79.8808,264.058 79.2141,263.391 77.5,264.5C 76.7379,263.372 76.0712,262.205 75.5,261C 72.6287,260.882 69.962,260.216 67.5,259C 68.91,258.632 69.91,257.799 70.5,256.5C 67.1776,254.677 64.5109,252.177 62.5,249C 63.1667,248.667 63.8333,248.333 64.5,248C 62.8894,245.318 60.5561,243.485 57.5,242.5C 58.6394,240.604 57.9728,239.604 55.5,239.5C 53.4637,235.359 51.7971,231.025 50.5,226.5C 45.034,223.599 39.7006,220.432 34.5,217C 25.3851,207.59 18.7184,196.757 14.5,184.5C 22.6475,197.831 34.3142,201.998 49.5,197C 56.4666,194.124 63.4666,191.457 70.5,189C 74.4964,187.337 78.1631,185.171 81.5,182.5C 82.3265,186.459 82.8265,190.459 83,194.5C 83.7119,196.847 84.8786,198.847 86.5,200.5C 86.5532,193.576 86.7199,186.576 87,179.5C 91.4509,176.046 94.7842,171.713 97,166.5C 97.9313,158.728 97.5979,151.061 96,143.5C 97.3046,155.886 93.8046,166.552 85.5,175.5C 82.257,162.595 77.757,150.261 72,138.5C 70.6988,139.098 69.8655,140.098 69.5,141.5C 70.5312,142.7 71.3645,144.034 72,145.5C 74.7368,156.54 77.5701,167.54 80.5,178.5C 76.1203,181.382 71.6203,184.048 67,186.5C 65.779,185.728 64.779,184.728 64,183.5C 63.1577,179.131 62.1577,174.797 61,170.5C 57.5226,161.908 54.3559,153.241 51.5,144.5C 54.7587,143.454 58.4253,142.454 62.5,141.5C 64.5854,139.918 66.0854,137.918 67,135.5C 68.073,136.28 69.2396,136.113 70.5,135C 70.0426,134.586 69.7093,134.086 69.5,133.5C 75.1278,132.505 80.7945,132.171 86.5,132.5 Z"/></g>
<g><path style="opacity:1" fill="#f7c6bf" d="M 86.5,132.5 C 80.7945,132.171 75.1278,132.505 69.5,133.5C 69.7093,134.086 70.0426,134.586 70.5,135C 69.2396,136.113 68.073,136.28 67,135.5C 66.0854,137.918 64.5854,139.918 62.5,141.5C 58.4253,142.454 54.7587,143.454 51.5,144.5C 50.5,144.5 49.5,144.5 48.5,144.5C 46.7354,143.539 44.7354,143.205 42.5,143.5C 42.5086,145.308 42.0086,146.975 41,148.5C 40.6667,148.167 40.3333,147.833 40,147.5C 37.6255,149.539 35.6255,151.872 34,154.5C 33.6322,153.09 32.7989,152.09 31.5,151.5C 30.52,154.086 30.1866,156.753 30.5,159.5C 29.776,157.782 29.1094,155.948 28.5,154C 26.9387,153.812 26.272,154.645 26.5,156.5C 25.5041,156.586 24.6708,156.252 24,155.5C 23.6667,156.833 23.3333,158.167 23,159.5C 22.4169,157.998 21.5836,156.665 20.5,155.5C 18.8543,155.458 17.1877,155.458 15.5,155.5C 17.9032,152.251 20.5699,149.084 23.5,146C 32.84,141.436 42.5067,137.436 52.5,134C 63.8901,131.442 75.2235,130.942 86.5,132.5 Z"/></g>
<g><path style="opacity:1" fill="#ed7660" d="M 14.5,184.5 C 11.4883,178.316 10.8216,171.982 12.5,165.5C 12.7581,173.421 15.0914,180.754 19.5,187.5C 24.9612,192.877 31.6279,195.21 39.5,194.5C 36.9319,186.683 33.7652,179.016 30,171.5C 28.6203,166.414 27.4536,161.414 26.5,156.5C 26.272,154.645 26.9387,153.812 28.5,154C 29.1094,155.948 29.776,157.782 30.5,159.5C 32.627,168.713 35.9603,177.38 40.5,185.5C 41.004,191.181 44.004,193.681 49.5,193C 54.0945,191.7 58.4279,189.867 62.5,187.5C 61.8641,185.22 60.8641,183.22 59.5,181.5C 55.2503,169.411 51.5836,157.077 48.5,144.5C 49.5,144.5 50.5,144.5 51.5,144.5C 54.3559,153.241 57.5226,161.908 61,170.5C 62.1577,174.797 63.1577,179.131 64,183.5C 64.779,184.728 65.779,185.728 67,186.5C 71.6203,184.048 76.1203,181.382 80.5,178.5C 77.5701,167.54 74.7368,156.54 72,145.5C 71.3645,144.034 70.5312,142.7 69.5,141.5C 69.8655,140.098 70.6988,139.098 72,138.5C 77.757,150.261 82.257,162.595 85.5,175.5C 93.8046,166.552 97.3046,155.886 96,143.5C 97.5979,151.061 97.9313,158.728 97,166.5C 94.7842,171.713 91.4509,176.046 87,179.5C 86.7199,186.576 86.5532,193.576 86.5,200.5C 84.8786,198.847 83.7119,196.847 83,194.5C 82.8265,190.459 82.3265,186.459 81.5,182.5C 78.1631,185.171 74.4964,187.337 70.5,189C 63.4666,191.457 56.4666,194.124 49.5,197C 34.3142,201.998 22.6475,197.831 14.5,184.5 Z"/></g>
<g><path style="opacity:1" fill="#f7c6bf" d="M 138.5,134.5 C 140.173,135.343 141.34,136.676 142,138.5C 143.68,143.541 143.68,148.541 142,153.5C 138.103,154.983 134.269,156.649 130.5,158.5C 129.193,157.053 127.859,156.387 126.5,156.5C 128.994,152.175 130.827,147.175 132,141.5C 133.627,143.312 135.127,143.479 136.5,142C 135.527,141.651 134.694,140.818 134,139.5C 132.817,140.731 131.651,140.731 130.5,139.5C 134.176,139.263 136.843,137.596 138.5,134.5 Z"/></g>
<g><path style="opacity:1" fill="#fbe0de" d="M 48.5,144.5 C 51.5836,157.077 55.2503,169.411 59.5,181.5C 59.631,182.239 59.4643,182.906 59,183.5C 56.4695,180.894 53.9695,180.56 51.5,182.5C 50.8333,182.167 50.1667,181.833 49.5,181.5C 48.646,182.522 47.646,183.355 46.5,184C 47.4506,184.718 47.6172,185.551 47,186.5C 45.2328,185.183 43.8995,183.516 43,181.5C 41.1476,183.23 41.3143,184.396 43.5,185C 42.552,185.483 41.552,185.649 40.5,185.5C 35.9603,177.38 32.627,168.713 30.5,159.5C 30.1866,156.753 30.52,154.086 31.5,151.5C 32.7989,152.09 33.6322,153.09 34,154.5C 35.6255,151.872 37.6255,149.539 40,147.5C 40.3333,147.833 40.6667,148.167 41,148.5C 42.0086,146.975 42.5086,145.308 42.5,143.5C 44.7354,143.205 46.7354,143.539 48.5,144.5 Z"/></g>
<g><path style="opacity:1" fill="#fad9d7" d="M 138.5,134.5 C 136.843,137.596 134.176,139.263 130.5,139.5C 131.651,140.731 132.817,140.731 134,139.5C 134.694,140.818 135.527,141.651 136.5,142C 135.127,143.479 133.627,143.312 132,141.5C 130.827,147.175 128.994,152.175 126.5,156.5C 127.859,156.387 129.193,157.053 130.5,158.5C 127.275,160.213 124.441,162.546 122,165.5C 121.826,170.351 121.326,175.018 120.5,179.5C 120.625,173.797 120.292,168.13 119.5,162.5C 118.127,162.657 116.793,162.49 115.5,162C 112.505,159.389 110.505,156.556 109.5,153.5C 110.26,149.809 112.26,148.809 115.5,150.5C 116.839,145.888 118.672,145.555 121,149.5C 120.578,144.712 118.078,141.212 113.5,139C 117.673,135.991 117.006,134.824 111.5,135.5C 115.969,132.572 120.969,131.239 126.5,131.5C 130.938,131.089 134.938,132.089 138.5,134.5 Z"/></g>
<g><path style="opacity:1" fill="#f9d3cf" d="M 26.5,156.5 C 27.4536,161.414 28.6203,166.414 30,171.5C 33.7652,179.016 36.9319,186.683 39.5,194.5C 31.6279,195.21 24.9612,192.877 19.5,187.5C 15.0914,180.754 12.7581,173.421 12.5,165.5C 12.5902,161.786 13.5902,158.452 15.5,155.5C 17.1877,155.458 18.8543,155.458 20.5,155.5C 21.5836,156.665 22.4169,157.998 23,159.5C 23.3333,158.167 23.6667,156.833 24,155.5C 24.6708,156.252 25.5041,156.586 26.5,156.5 Z"/></g>
<g><path style="opacity:1" fill="#f4cc24" d="M 337.5,214.5 C 330.852,208.206 322.852,205.706 313.5,207C 306.576,192.263 294.909,184.43 278.5,183.5C 281.732,183.095 284.566,181.762 287,179.5C 287.71,180.973 288.876,181.64 290.5,181.5C 290.351,182.552 290.517,183.552 291,184.5C 292.352,182.406 292.852,180.073 292.5,177.5C 295.272,178.235 297.939,178.401 300.5,178C 299.483,179.049 299.316,180.216 300,181.5C 301.073,180.72 302.24,180.887 303.5,182C 301.343,183.085 301.176,184.251 303,185.5C 305.139,184.375 306.306,183.042 306.5,181.5C 307.187,183.555 308.354,185.221 310,186.5C 316.892,183.002 318.058,184.169 313.5,190C 314.793,190.49 316.127,190.657 317.5,190.5C 317.373,193.245 318.54,195.245 321,196.5C 320.805,194.874 320.805,193.207 321,191.5C 321.915,192.328 322.581,193.328 323,194.5C 324.183,193.269 325.349,193.269 326.5,194.5C 326.291,195.086 325.957,195.586 325.5,196C 327,196.833 328.167,198 329,199.5C 329.419,198.328 330.085,197.328 331,196.5C 332.194,198.623 332.86,200.957 333,203.5C 334.114,201.517 335.614,199.85 337.5,198.5C 338.583,199.365 338.749,200.365 338,201.5C 335.732,202.076 334.732,203.41 335,205.5C 336.268,205.384 337.602,205.051 339,204.5C 339.333,203.167 339.667,201.833 340,200.5C 341.214,202.049 342.714,203.215 344.5,204C 342.578,205.46 341.911,207.127 342.5,209C 341.451,209.492 340.451,209.326 339.5,208.5C 338.523,210.411 337.857,212.411 337.5,214.5 Z"/></g>
<g><path style="opacity:1" fill="#f7c5bd" d="M 59.5,181.5 C 60.8641,183.22 61.8641,185.22 62.5,187.5C 58.4279,189.867 54.0945,191.7 49.5,193C 44.004,193.681 41.004,191.181 40.5,185.5C 41.552,185.649 42.552,185.483 43.5,185C 41.3143,184.396 41.1476,183.23 43,181.5C 43.8995,183.516 45.2328,185.183 47,186.5C 47.6172,185.551 47.4506,184.718 46.5,184C 47.646,183.355 48.646,182.522 49.5,181.5C 50.1667,181.833 50.8333,182.167 51.5,182.5C 53.9695,180.56 56.4695,180.894 59,183.5C 59.4643,182.906 59.631,182.239 59.5,181.5 Z"/></g>
<g><path style="opacity:1" fill="#f4c01f" d="M 150.5,179.5 C 150.672,181.492 150.005,183.158 148.5,184.5C 149.025,185.192 149.692,185.692 150.5,186C 148.117,187.8 146.45,190.133 145.5,193C 144.552,193.483 143.552,193.649 142.5,193.5C 142.819,195.75 142.319,197.75 141,199.5C 140.383,198.551 140.549,197.718 141.5,197C 139.726,195.244 138.059,195.244 136.5,197C 137.496,199.411 139.163,201.911 141.5,204.5C 140.766,206.815 139.432,208.648 137.5,210C 139.087,210.862 140.754,211.529 142.5,212C 142.033,215.465 140.033,217.132 136.5,217C 137.448,217.483 138.448,217.649 139.5,217.5C 139.657,218.873 139.49,220.207 139,221.5C 138.346,220.304 137.846,220.304 137.5,221.5C 138.896,222.852 139.563,224.519 139.5,226.5C 138.733,230.235 137.566,230.235 136,226.5C 133.952,227.098 132.785,228.431 132.5,230.5C 133.198,231.863 133.198,233.029 132.5,234C 136.5,234.667 136.5,235.333 132.5,236C 133.833,236.667 133.833,237.333 132.5,238C 133.91,238.368 134.91,239.201 135.5,240.5C 134.811,242.444 134.311,244.444 134,246.5C 133.346,245.304 132.846,245.304 132.5,246.5C 132.887,247.72 133.72,248.387 135,248.5C 138.76,247.264 139.26,248.097 136.5,251C 137.833,252 137.833,253 136.5,254C 134.861,255.519 133.194,255.686 131.5,254.5C 129.771,250.979 128.438,247.313 127.5,243.5C 126.587,235.006 125.587,226.506 124.5,218C 124.323,213.618 125.156,209.452 127,205.5C 129.827,202.671 131.827,199.337 133,195.5C 139.355,190.641 145.188,185.308 150.5,179.5 Z"/></g>
<g><path style="opacity:1" fill="#fbe4e3" d="M 278.5,183.5 C 294.909,184.43 306.576,192.263 313.5,207C 322.852,205.706 330.852,208.206 337.5,214.5C 338.234,215.708 338.567,217.041 338.5,218.5C 338.666,223.844 338.499,229.177 338,234.5C 329.74,250.124 330.907,264.957 341.5,279C 346.932,281.205 352.598,282.038 358.5,281.5C 359.263,282.268 360.263,282.768 361.5,283C 360.326,285.829 361.326,286.829 364.5,286C 362.099,285.195 362.266,284.362 365,283.5C 365.5,284 366,284.5 366.5,285C 365.167,285.667 365.167,286.333 366.5,287C 363.733,287.669 363.233,288.836 365,290.5C 366.261,290.241 367.261,289.574 368,288.5C 369.824,289.749 369.657,290.915 367.5,292C 369.134,292.494 370.801,292.66 372.5,292.5C 372.343,293.873 372.51,295.207 373,296.5C 375.861,296.092 376.028,296.925 373.5,299C 374.167,299.333 374.833,299.667 375.5,300C 374.748,300.671 374.414,301.504 374.5,302.5C 363.229,305.069 357.729,312.069 358,323.5C 360.087,321.255 361.421,318.588 362,315.5C 365.486,310.85 369.986,307.85 375.5,306.5C 380.222,305.977 384.555,306.977 388.5,309.5C 389.074,311.059 389.74,312.559 390.5,314C 391.449,314.617 392.282,314.451 393,313.5C 393.188,315.061 392.355,315.728 390.5,315.5C 390.756,317.912 389.756,319.579 387.5,320.5C 388.665,321.584 389.998,322.417 391.5,323C 390.663,324.011 390.33,325.178 390.5,326.5C 388.384,329.789 386.051,332.956 383.5,336C 369.188,343.974 354.355,345.474 339,340.5C 332.67,346.082 325.503,350.249 317.5,353C 316.619,353.708 315.953,354.542 315.5,355.5C 312.254,356.054 309.254,357.054 306.5,358.5C 301.773,358.779 297.107,359.446 292.5,360.5C 289.034,361.077 285.701,362.077 282.5,363.5C 281.551,362.848 280.385,362.514 279,362.5C 275.825,362.946 272.658,363.446 269.5,364C 254.614,364.438 239.948,364.605 225.5,364.5C 222.873,363.908 220.206,363.575 217.5,363.5C 217.5,365.167 217.5,366.833 217.5,368.5C 216.539,366.735 216.205,364.735 216.5,362.5C 211.531,361.337 206.531,360.17 201.5,359C 195.719,355.293 189.719,351.96 183.5,349C 179.26,344.255 174.593,340.088 169.5,336.5C 167.631,333.422 166.298,330.089 165.5,326.5C 167.109,325.229 168.942,324.229 171,323.5C 170.667,325.167 170.333,326.833 170,328.5C 173.419,327.951 176.253,329.284 178.5,332.5C 180.078,333.298 181.744,333.798 183.5,334C 182.833,334.333 182.167,334.667 181.5,335C 183.421,335.36 185.088,336.194 186.5,337.5C 187.281,336.263 188.281,335.263 189.5,334.5C 189.92,338.422 191.42,338.422 194,334.5C 196.405,336.821 198.072,336.155 199,332.5C 199.677,334.689 200.844,335.022 202.5,333.5C 203.635,331.293 204.301,328.96 204.5,326.5C 207.097,326.357 209.431,325.523 211.5,324C 210.244,323.583 209.577,322.75 209.5,321.5C 210.913,319.504 212.246,317.337 213.5,315C 209.407,312.321 207.241,308.487 207,303.5C 206,302.167 205,302.167 204,303.5C 203.302,302.309 202.469,301.309 201.5,300.5C 217.15,303.196 227.15,296.863 231.5,281.5C 239.436,265.656 235.103,254.323 218.5,247.5C 217.363,236.973 216.363,236.973 215.5,247.5C 210.917,247.528 206.75,248.861 203,251.5C 201.189,247.747 200.022,243.747 199.5,239.5C 197.998,244.316 198.665,248.816 201.5,253C 198.246,255.747 195.58,258.914 193.5,262.5C 188.575,271.252 187.575,280.585 190.5,290.5C 189.542,290.953 188.708,291.619 188,292.5C 187.261,291.426 186.261,290.759 185,290.5C 183.467,291.695 181.967,291.695 180.5,290.5C 179.803,292.385 178.803,292.718 177.5,291.5C 175.672,292.795 173.672,293.795 171.5,294.5C 173.461,295.848 173.628,297.181 172,298.5C 171.396,296.314 170.23,296.148 168.5,298C 169.858,299.832 170.192,301.665 169.5,303.5C 168.749,302.624 168.249,301.624 168,300.5C 167.638,303.31 166.805,305.977 165.5,308.5C 166.167,311.167 166.833,313.833 167.5,316.5C 167,317.5 166.5,318.5 166,319.5C 165.014,318.829 163.847,318.829 162.5,319.5C 161.411,312.883 161.244,306.217 162,299.5C 165.207,289.835 166.707,279.835 166.5,269.5C 167.351,263.66 168.018,257.66 168.5,251.5C 173.129,250.124 177.796,248.624 182.5,247C 191.689,240.986 198.022,232.819 201.5,222.5C 201.369,223.376 201.702,224.043 202.5,224.5C 207.571,220.745 213.237,219.578 219.5,221C 223.423,223.091 226.089,226.258 227.5,230.5C 228.002,231.521 228.668,231.688 229.5,231C 230.576,229.274 230.743,227.441 230,225.5C 221.987,215.15 212.82,213.817 202.5,221.5C 203.167,219.5 203.833,217.5 204.5,215.5C 208.701,209.046 214.701,206.713 222.5,208.5C 230.002,215.909 239.002,218.743 249.5,217C 256.321,214.013 260.321,208.846 261.5,201.5C 263.787,197.848 265.621,193.848 267,189.5C 270.221,186.306 274.054,184.306 278.5,183.5 Z"/></g>
<g><path style="opacity:1" fill="#f4c31d" d="M 436.5,259.5 C 434.704,266.942 434.204,274.609 435,282.5C 435.608,284.066 436.442,285.4 437.5,286.5C 444.841,305.85 444.008,324.85 435,343.5C 431.218,350.948 425.718,356.782 418.5,361C 403.763,365.05 388.763,367.05 373.5,367C 364.153,362.809 354.487,361.642 344.5,363.5C 344.908,362.357 345.575,361.357 346.5,360.5C 351.439,361.377 356.272,361.71 361,361.5C 361.5,361.333 362,361.167 362.5,361C 361.327,357.89 361.827,357.723 364,360.5C 364,359.167 364,357.833 364,356.5C 365.067,357.191 366.234,357.691 367.5,358C 366.304,358.654 366.304,359.154 367.5,359.5C 369.391,357.984 371.391,356.65 373.5,355.5C 374.478,355.977 375.311,356.643 376,357.5C 375.385,355.244 375.052,352.911 375,350.5C 377.898,350.998 380.732,351.665 383.5,352.5C 383.167,353.5 382.5,354.167 381.5,354.5C 379.084,353.681 378.918,354.348 381,356.5C 382.912,355.308 384.912,354.308 387,353.5C 388.087,355.932 388.587,355.598 388.5,352.5C 390.124,352.36 391.29,353.027 392,354.5C 393.011,353.663 394.178,353.33 395.5,353.5C 395.351,354.552 395.517,355.552 396,356.5C 398.336,355.708 398.836,354.375 397.5,352.5C 399.909,351.278 401.742,351.945 403,354.5C 402.577,352.613 402.744,350.613 403.5,348.5C 404.5,348.5 405.5,348.5 406.5,348.5C 406.773,350.451 406.107,351.951 404.5,353C 405.047,353.925 405.713,354.758 406.5,355.5C 407.149,353.376 407.983,351.376 409,349.5C 412.367,350.553 414.034,352.886 414,356.5C 416.228,353.36 418.895,350.694 422,348.5C 422.749,347.365 422.583,346.365 421.5,345.5C 420.742,346.811 419.742,347.311 418.5,347C 419.5,345.333 420.833,344 422.5,343C 421.833,342.333 421.167,341.667 420.5,341C 420.982,339.992 421.148,338.825 421,337.5C 421.561,338.022 422.228,338.355 423,338.5C 424.326,337.201 425.66,335.868 427,334.5C 428.183,335.731 429.349,335.731 430.5,334.5C 428.556,334.028 426.722,332.695 425,330.5C 423.705,334.084 422.205,334.25 420.5,331C 422.087,330.138 423.754,329.471 425.5,329C 425.167,328.667 424.833,328.333 424.5,328C 426.002,327.417 427.335,326.584 428.5,325.5C 426.917,325.382 425.251,324.549 423.5,323C 424.715,320.904 425.549,321.071 426,323.5C 427.32,323.201 428.82,323.034 430.5,323C 430.833,322.667 431.167,322.333 431.5,322C 429,321.167 428.833,320 431,318.5C 431.849,320.506 433.015,321.172 434.5,320.5C 431.709,317.722 430.376,314.389 430.5,310.5C 429.448,310.649 428.448,310.483 427.5,310C 429.325,308.534 429.825,306.701 429,304.5C 428.632,305.91 427.799,306.91 426.5,307.5C 425.813,305.726 424.98,304.059 424,302.5C 423.107,303.711 422.274,303.711 421.5,302.5C 425.526,300.316 425.193,298.816 420.5,298C 423.167,297 423.167,296 420.5,295C 421.938,294.781 423.271,294.281 424.5,293.5C 424.167,292.5 423.5,291.833 422.5,291.5C 421.742,292.811 420.742,293.311 419.5,293C 420.833,292 420.833,291 419.5,290C 420.448,289.517 421.448,289.351 422.5,289.5C 422.5,288.5 422.5,287.5 422.5,286.5C 418.901,286.738 418.567,285.738 421.5,283.5C 420.16,282.312 419.493,280.812 419.5,279C 419.424,276.244 420.757,275.077 423.5,275.5C 423.762,274.022 423.429,272.689 422.5,271.5C 422.167,272.167 421.833,272.833 421.5,273.5C 420.269,272.349 420.269,271.183 421.5,270C 420.747,268.513 419.914,268.346 419,269.5C 418.626,268.584 418.126,267.75 417.5,267C 419.134,266.506 420.801,266.34 422.5,266.5C 422.28,261.744 421.28,261.078 419.5,264.5C 419.167,264 418.833,263.5 418.5,263C 419.707,260.734 421.374,258.901 423.5,257.5C 422.349,256.269 421.183,256.269 420,257.5C 419.333,256.833 419.333,256.167 420,255.5C 424.55,253.312 424.216,251.645 419,250.5C 418.333,249.833 418.333,249.167 419,248.5C 422.291,246.976 422.125,245.643 418.5,244.5C 420.202,242.586 422.202,241.086 424.5,240C 422.863,238.049 421.363,238.216 420,240.5C 417.152,239.567 416.986,238.067 419.5,236C 417.99,234.649 416.99,232.982 416.5,231C 419.013,225.854 418.18,225.354 414,229.5C 413.5,229.333 413,229.167 412.5,229C 416.19,226.884 416.19,225.051 412.5,223.5C 413.247,223.264 414.08,222.93 415,222.5C 415.494,220.866 415.66,219.199 415.5,217.5C 411.65,217.299 410.65,215.466 412.5,212C 410.833,211.667 409.167,211.333 407.5,211C 408.989,207.334 407.655,205.334 403.5,205C 404.061,203.434 403.394,202.101 401.5,201C 402.956,200.577 403.456,199.744 403,198.5C 401.506,199.747 400.006,199.747 398.5,198.5C 398.887,197.28 399.72,196.613 401,196.5C 402.94,198.162 403.606,197.829 403,195.5C 401.667,194.833 400.667,193.833 400,192.5C 398.989,193.337 397.822,193.67 396.5,193.5C 396.67,192.178 396.337,191.011 395.5,190C 393.833,189.667 392.167,189.333 390.5,189C 392.359,188.316 394.026,187.316 395.5,186C 393.667,185.5 392.5,184.333 392,182.5C 391.667,183.167 391.333,183.833 391,184.5C 389.992,180.308 387.492,177.808 383.5,177C 383.957,176.586 384.291,176.086 384.5,175.5C 382.994,174.253 381.494,174.253 380,175.5C 377.833,174 378,172.833 380.5,172C 378.676,169.919 377.009,170.085 375.5,172.5C 375.167,172.167 374.833,171.833 374.5,171.5C 375.263,170.281 376.263,169.281 377.5,168.5C 375.997,166.578 373.997,165.412 371.5,165C 369.588,162.052 367.588,162.219 365.5,165.5C 365.167,164.833 364.833,164.167 364.5,163.5C 362.995,166.131 362.329,165.797 362.5,162.5C 359.626,162.623 357.126,163.623 355,165.5C 354.667,165.167 354.333,164.833 354,164.5C 351.934,166.97 349.267,168.304 346,168.5C 342.256,165.615 338.256,162.949 334,160.5C 333.5,160.833 333,161.167 332.5,161.5C 336.717,164.035 336.383,164.868 331.5,164C 330.756,161.149 330.756,158.483 331.5,156C 332.676,154.086 333.676,154.252 334.5,156.5C 335.248,154.668 336.248,153.001 337.5,151.5C 337.167,151.167 336.833,150.833 336.5,150.5C 333.603,152.318 330.603,153.985 327.5,155.5C 326.355,154.224 326.355,152.891 327.5,151.5C 325.662,150.811 323.995,150.478 322.5,150.5C 322.968,148.866 323.968,147.7 325.5,147C 324.034,146.365 322.7,145.531 321.5,144.5C 320.833,145.167 320.167,145.833 319.5,146.5C 316.865,146.106 316.199,144.939 317.5,143C 315.446,139.625 314.612,136.125 315,132.5C 313.484,135.051 312.651,134.718 312.5,131.5C 309.612,131.78 308.112,130.447 308,127.5C 307.586,127.957 307.086,128.291 306.5,128.5C 305.833,127.167 305.167,125.833 304.5,124.5C 301.212,123.462 300.879,124.128 303.5,126.5C 303.167,126.833 302.833,127.167 302.5,127.5C 299.868,125.941 297.368,124.274 295,122.5C 294.25,123.126 293.416,123.626 292.5,124C 292.833,124.333 293.167,124.667 293.5,125C 289.853,125.774 286.186,126.441 282.5,127C 281.354,127.645 280.354,128.478 279.5,129.5C 278.131,127.876 276.464,127.376 274.5,128C 272.037,128.678 270.037,130.511 268.5,133.5C 266.097,133.904 263.597,133.904 261,133.5C 258.474,136.063 256.807,135.397 256,131.5C 254.933,132.191 253.766,132.691 252.5,133C 254.805,135.807 254.472,138.474 251.5,141C 250.451,141.492 249.451,141.326 248.5,140.5C 246.684,143.064 244.851,143.064 243,140.5C 242.902,142.619 242.069,144.286 240.5,145.5C 237.972,144.502 237.972,143.669 240.5,143C 239.101,142.405 237.768,142.572 236.5,143.5C 235.15,141.265 233.65,139.932 232,139.5C 231.751,140.624 231.251,141.624 230.5,142.5C 229.289,141.726 229.289,140.893 230.5,140C 224.124,138.714 224.458,137.714 231.5,137C 233.927,135.446 233.927,134.279 231.5,133.5C 241.749,130.551 251.749,126.718 261.5,122C 272.278,118.724 283.278,117.724 294.5,119C 309.329,121.751 323.329,126.751 336.5,134C 343.381,139.535 348.715,146.202 352.5,154C 358.914,154.129 365.247,154.796 371.5,156C 376.118,158.95 380.452,162.284 384.5,166C 387.788,170.077 390.955,174.244 394,178.5C 395.556,183.28 397.889,187.613 401,191.5C 410,200.5 419,209.5 428,218.5C 437.268,230.763 440.101,244.43 436.5,259.5 Z"/></g>
<g><path style="opacity:1" fill="#f5c623" d="M 261.5,201.5 C 260.321,208.846 256.321,214.013 249.5,217C 239.002,218.743 230.002,215.909 222.5,208.5C 224.429,207.994 226.095,206.994 227.5,205.5C 228.428,207.335 229.594,207.668 231,206.5C 232.14,208.078 232.64,209.744 232.5,211.5C 234.973,209.758 234.973,207.925 232.5,206C 233.667,205.5 234.5,204.667 235,203.5C 236.356,204.38 237.856,204.714 239.5,204.5C 239.281,203.325 239.614,202.325 240.5,201.5C 241.167,202.833 241.833,204.167 242.5,205.5C 243.941,204.696 245.441,204.029 247,203.5C 249.009,203.995 251.176,203.995 253.5,203.5C 253.5,202.5 253.5,201.5 253.5,200.5C 254.5,200.5 255.5,200.5 256.5,200.5C 256.351,201.552 256.517,202.552 257,203.5C 258.049,201.893 259.549,201.227 261.5,201.5 Z"/></g>
<g><path style="opacity:1" fill="#497cb1" d="M 201.5,222.5 C 201.5,221.833 201.833,221.5 202.5,221.5C 212.82,213.817 221.987,215.15 230,225.5C 230.743,227.441 230.576,229.274 229.5,231C 228.668,231.688 228.002,231.521 227.5,230.5C 226.089,226.258 223.423,223.091 219.5,221C 213.237,219.578 207.571,220.745 202.5,224.5C 201.702,224.043 201.369,223.376 201.5,222.5 Z"/></g>
<g><path style="opacity:1" fill="#f5c725" d="M 204.5,215.5 C 203.833,217.5 203.167,219.5 202.5,221.5C 201.833,221.5 201.5,221.833 201.5,222.5C 198.022,232.819 191.689,240.986 182.5,247C 177.796,248.624 173.129,250.124 168.5,251.5C 168.018,257.66 167.351,263.66 166.5,269.5C 166.666,265.486 166.499,261.486 166,257.5C 165.308,256.975 164.808,256.308 164.5,255.5C 167.079,251.748 169.079,247.748 170.5,243.5C 175.796,242.605 175.796,241.438 170.5,240C 171.257,238.488 172.257,237.154 173.5,236C 172.398,233.609 173.064,233.109 175.5,234.5C 177.234,232.766 178.568,230.766 179.5,228.5C 181.596,229.62 181.93,231.12 180.5,233C 182.061,233.188 182.728,232.355 182.5,230.5C 183.675,230.719 184.675,230.386 185.5,229.5C 180.279,228.376 180.279,227.542 185.5,227C 184.549,226.282 184.383,225.449 185,224.5C 186.333,225.167 187.333,226.167 188,227.5C 188.195,225.793 188.195,224.126 188,222.5C 189.796,223.767 191.629,223.767 193.5,222.5C 194.748,223.04 195.915,223.707 197,224.5C 197.861,219.921 200.361,216.921 204.5,215.5 Z"/></g>
<g><path style="opacity:1" fill="#457aaf" d="M 293.5,229.5 C 297.637,229.146 301.637,229.646 305.5,231C 308.427,233.382 311.261,235.882 314,238.5C 314.494,240.134 314.66,241.801 314.5,243.5C 313.167,243.5 311.833,243.5 310.5,243.5C 307.852,235.209 302.186,232.043 293.5,234C 290.412,234.579 287.745,235.913 285.5,238C 284.056,238.781 282.723,238.614 281.5,237.5C 285.792,235.197 289.792,232.53 293.5,229.5 Z"/></g>
<g><path style="opacity:1" fill="#282427" d="M 231.5,281.5 C 234.981,270.085 232.315,260.585 223.5,253C 220.794,251.092 217.794,250.259 214.5,250.5C 205.403,251.802 198.57,256.469 194,264.5C 193.536,263.906 193.369,263.239 193.5,262.5C 195.58,258.914 198.246,255.747 201.5,253C 198.665,248.816 197.998,244.316 199.5,239.5C 200.022,243.747 201.189,247.747 203,251.5C 206.75,248.861 210.917,247.528 215.5,247.5C 216.363,236.973 217.363,236.973 218.5,247.5C 235.103,254.323 239.436,265.656 231.5,281.5 Z"/></g>
<g><path style="opacity:1" fill="#6aa9da" d="M 214.5,250.5 C 218.562,265.014 216.729,278.68 209,291.5C 205.315,293.745 201.815,296.078 198.5,298.5C 197.167,297.5 195.833,296.5 194.5,295.5C 193.136,293.809 191.803,292.142 190.5,290.5C 187.575,280.585 188.575,271.252 193.5,262.5C 193.369,263.239 193.536,263.906 194,264.5C 198.57,256.469 205.403,251.802 214.5,250.5 Z"/></g>
<g><path style="opacity:1" fill="#fcfbfc" d="M 214.5,250.5 C 217.794,250.259 220.794,251.092 223.5,253C 232.315,260.585 234.981,270.085 231.5,281.5C 227.15,296.863 217.15,303.196 201.5,300.5C 200.29,300.068 199.29,299.401 198.5,298.5C 201.815,296.078 205.315,293.745 209,291.5C 216.729,278.68 218.562,265.014 214.5,250.5 Z"/></g>
<g><path style="opacity:1" fill="#f5c724" d="M 338.5,218.5 C 339.321,221.641 339.821,224.975 340,228.5C 340.956,229.579 341.789,230.745 342.5,232C 340.632,232.899 339.632,234.399 339.5,236.5C 340.103,238.872 341.103,241.039 342.5,243C 342.034,245.186 341.701,247.352 341.5,249.5C 341.968,251.134 342.968,252.3 344.5,253C 344.167,253.333 343.833,253.667 343.5,254C 344.793,254.49 346.127,254.657 347.5,254.5C 347.343,255.873 347.51,257.207 348,258.5C 348.333,258.167 348.667,257.833 349,257.5C 349.374,258.416 349.874,259.25 350.5,260C 349.59,261.805 348.59,263.638 347.5,265.5C 348.522,266.354 349.355,267.354 350,268.5C 351.688,267.675 351.855,266.675 350.5,265.5C 352.956,262.778 353.623,262.944 352.5,266C 353.308,266.308 353.975,266.808 354.5,267.5C 353.758,269.35 352.758,270.016 351.5,269.5C 353.665,271.767 355.665,271.767 357.5,269.5C 359.909,270.701 361.909,272.367 363.5,274.5C 365.325,273.429 366.492,274.096 367,276.5C 368.011,275.663 369.178,275.33 370.5,275.5C 370.5,276.5 370.5,277.5 370.5,278.5C 366.884,278.899 363.55,279.899 360.5,281.5C 359.833,281.5 359.167,281.5 358.5,281.5C 352.598,282.038 346.932,281.205 341.5,279C 330.907,264.957 329.74,250.124 338,234.5C 338.499,229.177 338.666,223.844 338.5,218.5 Z"/></g>
<g><path style="opacity:1" fill="#266fa8" d="M 201.5,258.5 C 207.435,256.963 210.768,259.129 211.5,265C 210.738,271.956 208.405,278.289 204.5,284C 198.699,285.199 195.365,282.866 194.5,277C 195.242,270.177 197.575,264.01 201.5,258.5 Z"/></g>
<g><path style="opacity:1" fill="#f3a730" d="M 436.5,259.5 C 436.284,268.533 436.617,277.533 437.5,286.5C 436.442,285.4 435.608,284.066 435,282.5C 434.204,274.609 434.704,266.942 436.5,259.5 Z"/></g>
<g><path style="opacity:1" fill="#fadbd9" d="M 55.5,239.5 C 57.9728,239.604 58.6394,240.604 57.5,242.5C 60.5561,243.485 62.8894,245.318 64.5,248C 63.8333,248.333 63.1667,248.667 62.5,249C 64.5109,252.177 67.1776,254.677 70.5,256.5C 69.91,257.799 68.91,258.632 67.5,259C 69.962,260.216 72.6287,260.882 75.5,261C 76.0712,262.205 76.7379,263.372 77.5,264.5C 79.2141,263.391 79.8808,264.058 79.5,266.5C 83.1318,268.543 87.1318,270.043 91.5,271C 90.7471,272.487 89.9138,272.654 89,271.5C 88.4226,274.46 89.4226,275.126 92,273.5C 94.7993,274.237 94.9659,275.07 92.5,276C 96.1244,278.674 96.1244,281.507 92.5,284.5C 96.9815,283.441 99.4815,285.441 100,290.5C 102.757,292.533 104.924,295.033 106.5,298C 106.043,298.414 105.709,298.914 105.5,299.5C 106.687,300.519 107.687,301.686 108.5,303C 106.82,303.347 105.82,304.347 105.5,306C 107.025,308.03 108.358,310.197 109.5,312.5C 110.425,313.641 111.259,313.641 112,312.5C 112.305,314.557 112.305,316.557 112,318.5C 113.84,317.167 114.34,317.334 113.5,319C 114.77,319.9 115.77,321.066 116.5,322.5C 117.451,321.674 118.451,321.508 119.5,322C 118.869,324.355 118.869,326.522 119.5,328.5C 118.833,328.833 118.167,329.167 117.5,329.5C 121.304,331.363 122.304,334.196 120.5,338C 122.112,338.72 123.612,338.554 125,337.5C 125.5,338 126,338.5 126.5,339C 124.699,339.317 124.366,339.984 125.5,341C 124.687,342.314 123.687,343.481 122.5,344.5C 124.959,344.833 127.626,345.666 130.5,347C 129.167,347.667 129.167,348.333 130.5,349C 128.68,349.2 127.347,350.034 126.5,351.5C 122.824,349.989 120.324,347.323 119,343.5C 90.1303,313.479 68.9637,278.813 55.5,239.5 Z"/></g>
<g><path style="opacity:1" fill="#1c1919" d="M 293.5,298.5 C 293.782,299.778 294.449,300.778 295.5,301.5C 297.429,303.148 299.429,304.815 301.5,306.5C 302.429,307.689 302.762,309.022 302.5,310.5C 301.022,310.762 299.689,310.429 298.5,309.5C 296.146,306.479 293.479,303.812 290.5,301.5C 289.833,300.167 288.833,299.167 287.5,298.5C 286.162,296.33 284.328,294.664 282,293.5C 281.506,291.866 281.34,290.199 281.5,288.5C 288.917,286.294 296.25,283.794 303.5,281C 305.5,280.333 307.5,280.333 309.5,281C 301.541,284.597 293.541,288.097 285.5,291.5C 288.83,293.169 291.497,295.502 293.5,298.5 Z"/></g>
<g><path style="opacity:1" fill="#f9d2cd" d="M 384.5,301.5 C 381.098,301.342 377.764,301.676 374.5,302.5C 374.414,301.504 374.748,300.671 375.5,300C 374.833,299.667 374.167,299.333 373.5,299C 376.028,296.925 375.861,296.092 373,296.5C 372.51,295.207 372.343,293.873 372.5,292.5C 370.801,292.66 369.134,292.494 367.5,292C 369.657,290.915 369.824,289.749 368,288.5C 367.261,289.574 366.261,290.241 365,290.5C 363.233,288.836 363.733,287.669 366.5,287C 365.167,286.333 365.167,285.667 366.5,285C 366,284.5 365.5,284 365,283.5C 362.266,284.362 362.099,285.195 364.5,286C 361.326,286.829 360.326,285.829 361.5,283C 360.263,282.768 359.263,282.268 358.5,281.5C 359.167,281.5 359.833,281.5 360.5,281.5C 361.75,281.577 362.583,282.244 363,283.5C 364.066,281.901 365.566,280.901 367.5,280.5C 368.679,284.808 370.013,285.141 371.5,281.5C 372.5,282.833 373.5,282.833 374.5,281.5C 375.23,282.934 376.23,284.1 377.5,285C 374.478,289.716 375.644,291.549 381,290.5C 381.617,291.449 381.451,292.282 380.5,293C 382.619,296.169 384.619,296.169 386.5,293C 384.071,292.549 383.904,291.715 386,290.5C 387.264,292.607 389.097,293.607 391.5,293.5C 390.752,295.584 390.752,297.584 391.5,299.5C 390.24,300.382 389.074,301.382 388,302.5C 388.414,299.023 387.247,298.689 384.5,301.5 Z"/></g>
<g><path style="opacity:1" fill="#ed7a64" d="M 242.5,294.5 C 244.5,294.5 246.5,294.5 248.5,294.5C 248.5,295.833 248.5,297.167 248.5,298.5C 245.794,298.575 243.127,298.908 240.5,299.5C 240.392,297.486 241.058,295.82 242.5,294.5 Z"/></g>
<g><path style="opacity:1" fill="#f6bdb0" d="M 370.5,278.5 C 390.933,280.106 399.767,291.106 397,311.5C 396.451,317.351 394.284,322.351 390.5,326.5C 390.33,325.178 390.663,324.011 391.5,323C 389.998,322.417 388.665,321.584 387.5,320.5C 389.756,319.579 390.756,317.912 390.5,315.5C 392.355,315.728 393.188,315.061 393,313.5C 392.282,314.451 391.449,314.617 390.5,314C 389.74,312.559 389.074,311.059 388.5,309.5C 384.555,306.977 380.222,305.977 375.5,306.5C 378.641,305.679 381.975,305.179 385.5,305C 385.833,304.667 386.167,304.333 386.5,304C 385.619,303.292 384.953,302.458 384.5,301.5C 387.247,298.689 388.414,299.023 388,302.5C 389.074,301.382 390.24,300.382 391.5,299.5C 390.752,297.584 390.752,295.584 391.5,293.5C 389.097,293.607 387.264,292.607 386,290.5C 383.904,291.715 384.071,292.549 386.5,293C 384.619,296.169 382.619,296.169 380.5,293C 381.451,292.282 381.617,291.449 381,290.5C 375.644,291.549 374.478,289.716 377.5,285C 376.23,284.1 375.23,282.934 374.5,281.5C 373.5,282.833 372.5,282.833 371.5,281.5C 370.013,285.141 368.679,284.808 367.5,280.5C 365.566,280.901 364.066,281.901 363,283.5C 362.583,282.244 361.75,281.577 360.5,281.5C 363.55,279.899 366.884,278.899 370.5,278.5 Z"/></g>
<g><path style="opacity:1" fill="#ed7760" d="M 384.5,301.5 C 384.953,302.458 385.619,303.292 386.5,304C 386.167,304.333 385.833,304.667 385.5,305C 381.975,305.179 378.641,305.679 375.5,306.5C 369.986,307.85 365.486,310.85 362,315.5C 361.421,318.588 360.087,321.255 358,323.5C 357.729,312.069 363.229,305.069 374.5,302.5C 377.764,301.676 381.098,301.342 384.5,301.5 Z"/></g>
<g><path style="opacity:1" fill="#f6c0b7" d="M 194.5,295.5 C 195.833,296.5 197.167,297.5 198.5,298.5C 199.29,299.401 200.29,300.068 201.5,300.5C 202.469,301.309 203.302,302.309 204,303.5C 205,302.167 206,302.167 207,303.5C 207.241,308.487 209.407,312.321 213.5,315C 212.246,317.337 210.913,319.504 209.5,321.5C 206.933,322.475 204.267,323.142 201.5,323.5C 201.565,320.514 200.398,318.18 198,316.5C 197.383,317.449 197.549,318.282 198.5,319C 196.491,318.406 194.491,318.573 192.5,319.5C 190.559,317.684 189.892,315.684 190.5,313.5C 188.261,311.88 186.427,312.213 185,314.5C 184.504,312.965 184.67,311.465 185.5,310C 184.833,309.333 184.167,308.667 183.5,308C 183.905,307.055 184.572,306.388 185.5,306C 184.328,305.581 183.328,304.915 182.5,304C 184.439,303.092 185.439,301.592 185.5,299.5C 181.757,299.541 181.59,298.874 185,297.5C 187.173,300.277 187.673,300.11 186.5,297C 189.34,297.898 192.006,297.398 194.5,295.5 Z"/></g>
<g><path style="opacity:1" fill="#ed7660" d="M 270.5,308.5 C 271.833,308.5 273.167,308.5 274.5,308.5C 274.66,310.199 274.494,311.866 274,313.5C 272.293,315.037 270.793,316.704 269.5,318.5C 263.915,322.372 257.748,325.039 251,326.5C 244.614,326.409 238.781,324.575 233.5,321C 231.963,319.89 231.297,318.39 231.5,316.5C 235.217,317.689 238.884,319.189 242.5,321C 253.366,322.812 262.532,319.645 270,311.5C 270.483,310.552 270.649,309.552 270.5,308.5 Z"/></g>
<g><path style="opacity:1" fill="#f9d8d5" d="M 190.5,290.5 C 191.803,292.142 193.136,293.809 194.5,295.5C 192.006,297.398 189.34,297.898 186.5,297C 187.673,300.11 187.173,300.277 185,297.5C 181.59,298.874 181.757,299.541 185.5,299.5C 185.439,301.592 184.439,303.092 182.5,304C 183.328,304.915 184.328,305.581 185.5,306C 184.572,306.388 183.905,307.055 183.5,308C 184.167,308.667 184.833,309.333 185.5,310C 184.67,311.465 184.504,312.965 185,314.5C 186.427,312.213 188.261,311.88 190.5,313.5C 189.892,315.684 190.559,317.684 192.5,319.5C 194.491,318.573 196.491,318.406 198.5,319C 197.549,318.282 197.383,317.449 198,316.5C 200.398,318.18 201.565,320.514 201.5,323.5C 204.267,323.142 206.933,322.475 209.5,321.5C 209.577,322.75 210.244,323.583 211.5,324C 209.431,325.523 207.097,326.357 204.5,326.5C 204.301,328.96 203.635,331.293 202.5,333.5C 200.844,335.022 199.677,334.689 199,332.5C 198.072,336.155 196.405,336.821 194,334.5C 191.42,338.422 189.92,338.422 189.5,334.5C 188.281,335.263 187.281,336.263 186.5,337.5C 185.088,336.194 183.421,335.36 181.5,335C 182.167,334.667 182.833,334.333 183.5,334C 181.744,333.798 180.078,333.298 178.5,332.5C 176.253,329.284 173.419,327.951 170,328.5C 170.333,326.833 170.667,325.167 171,323.5C 168.942,324.229 167.109,325.229 165.5,326.5C 164.055,324.429 163.055,322.096 162.5,319.5C 163.847,318.829 165.014,318.829 166,319.5C 166.5,318.5 167,317.5 167.5,316.5C 166.833,313.833 166.167,311.167 165.5,308.5C 166.805,305.977 167.638,303.31 168,300.5C 168.249,301.624 168.749,302.624 169.5,303.5C 170.192,301.665 169.858,299.832 168.5,298C 170.23,296.148 171.396,296.314 172,298.5C 173.628,297.181 173.461,295.848 171.5,294.5C 173.672,293.795 175.672,292.795 177.5,291.5C 178.803,292.718 179.803,292.385 180.5,290.5C 181.967,291.695 183.467,291.695 185,290.5C 186.261,290.759 187.261,291.426 188,292.5C 188.708,291.619 189.542,290.953 190.5,290.5 Z"/></g>
<g><path style="opacity:1" fill="#b4a1cc" d="M 169.5,336.5 C 174.593,340.088 179.26,344.255 183.5,349C 189.719,351.96 195.719,355.293 201.5,359C 206.531,360.17 211.531,361.337 216.5,362.5C 216.205,364.735 216.539,366.735 217.5,368.5C 220.336,379.656 226.336,388.822 235.5,396C 262.01,405.657 280.51,397.49 291,371.5C 292.108,367.914 292.608,364.247 292.5,360.5C 297.107,359.446 301.773,358.779 306.5,358.5C 307.919,359.451 309.585,359.784 311.5,359.5C 318.847,361.501 326.181,363.501 333.5,365.5C 336.982,368.484 339.482,372.151 341,376.5C 341.5,382.825 341.666,389.158 341.5,395.5C 340.199,399.943 339.532,404.609 339.5,409.5C 337.366,423.042 333.533,436.042 328,448.5C 323.963,451.879 319.463,454.379 314.5,456C 309.598,456.741 304.932,457.908 300.5,459.5C 299.167,459.5 297.833,459.5 296.5,459.5C 296.072,449.606 296.572,439.606 298,429.5C 300.333,419.503 302.666,409.503 305,399.5C 308.597,389.578 314.763,381.745 323.5,376C 320.449,375.143 317.783,375.81 315.5,378C 311.964,381.201 308.797,384.701 306,388.5C 295.696,410.716 291.196,434.383 292.5,459.5C 271.833,459.5 251.167,459.5 230.5,459.5C 224.369,457.84 219.202,454.507 215,449.5C 211.259,443.021 207.259,436.688 203,430.5C 198.388,420.228 192.555,410.728 185.5,402C 172.133,397.149 159.133,391.483 146.5,385C 141.576,381.287 136.742,377.454 132,373.5C 131.333,371.833 131.333,370.167 132,368.5C 134.04,366.63 135.873,364.63 137.5,362.5C 140.63,362.401 143.296,361.234 145.5,359C 153.416,351.911 161.083,344.744 168.5,337.5C 168.5,336.833 168.833,336.5 169.5,336.5 Z"/></g>
<g><path style="opacity:1" fill="#f9d6d3" d="M 269.5,318.5 C 270.793,316.704 272.293,315.037 274,313.5C 274.494,311.866 274.66,310.199 274.5,308.5C 273.167,308.5 271.833,308.5 270.5,308.5C 271.878,307.766 273.378,307.099 275,306.5C 275.469,308.108 276.135,309.775 277,311.5C 277.333,309.833 277.667,308.167 278,306.5C 280.325,305.503 281.325,303.837 281,301.5C 278.67,304.182 278.17,303.849 279.5,300.5C 281.098,298.027 282.598,298.027 284,300.5C 285.302,299.915 286.469,299.249 287.5,298.5C 288.833,299.167 289.833,300.167 290.5,301.5C 289.77,303.045 288.437,303.878 286.5,304C 288.044,304.29 289.377,304.956 290.5,306C 289.167,307 289.167,308 290.5,309C 288.621,309.063 286.787,308.563 285,307.5C 282.279,308.559 280.612,310.559 280,313.5C 279.25,314.126 278.416,314.626 277.5,315C 278.595,317.195 279.595,319.362 280.5,321.5C 279.305,323.751 278.305,326.085 277.5,328.5C 279.655,329.928 281.821,330.261 284,329.5C 284,330.833 284,332.167 284,333.5C 284.414,333.043 284.914,332.709 285.5,332.5C 285.109,333.891 285.942,334.891 288,335.5C 288.333,335.167 288.667,334.833 289,334.5C 289.333,335.5 289.667,336.5 290,337.5C 291.356,336.62 292.856,336.286 294.5,336.5C 294.331,331.959 294.998,331.626 296.5,335.5C 297.167,334.5 297.833,333.5 298.5,332.5C 299.167,333.833 299.833,335.167 300.5,336.5C 302.278,336.569 304.111,336.903 306,337.5C 306.465,336.069 307.299,334.903 308.5,334C 306.775,334.409 305.108,334.242 303.5,333.5C 304.558,331.523 306.558,329.856 309.5,328.5C 308.726,327.289 307.893,327.289 307,328.5C 306.193,324.551 305.693,324.551 305.5,328.5C 303.058,328.119 302.391,328.786 303.5,330.5C 302.273,331.59 301.44,332.924 301,334.5C 300.487,332.479 299.32,330.979 297.5,330C 299.23,328.148 300.396,328.314 301,330.5C 301.658,328.892 301.158,327.725 299.5,327C 301.112,326.28 302.612,326.446 304,327.5C 305.462,323.094 305.795,318.428 305,313.5C 305.718,314.451 306.551,314.617 307.5,314C 306.62,312.644 306.286,311.144 306.5,309.5C 305.5,309.5 304.5,309.5 303.5,309.5C 303.5,307.833 303.5,306.167 303.5,304.5C 301.843,302.73 299.176,301.73 295.5,301.5C 294.449,300.778 293.782,299.778 293.5,298.5C 295.01,297.272 296.51,297.272 298,298.5C 298.456,297.256 297.956,296.423 296.5,296C 297.563,294.812 298.897,294.312 300.5,294.5C 300.5,295.5 300.5,296.5 300.5,297.5C 302.124,297.64 303.29,296.973 304,295.5C 305.248,299.135 307.581,300.468 311,299.5C 313.148,303.614 314.482,303.281 315,298.5C 315.36,300.421 316.194,302.088 317.5,303.5C 319.256,303.36 320.922,303.86 322.5,305C 321.914,306.764 320.914,308.764 319.5,311C 319.667,311.5 319.833,312 320,312.5C 320.667,311.167 321.333,311.167 322,312.5C 322.29,310.956 322.956,309.623 324,308.5C 324.388,311.337 323.555,313.837 321.5,316C 322.5,317.5 323.5,319 324.5,320.5C 325.609,319.41 326.609,319.41 327.5,320.5C 324.32,321.947 321.32,323.78 318.5,326C 320.556,326.311 322.556,326.811 324.5,327.5C 325.757,323.624 326.59,323.624 327,327.5C 325.143,329.631 322.977,330.131 320.5,329C 319.5,330.667 318.167,332 316.5,333C 319.73,334.724 320.064,336.724 317.5,339C 316.256,339.456 315.423,338.956 315,337.5C 302.628,347.733 291.295,347.733 281,337.5C 280.51,336.207 280.343,334.873 280.5,333.5C 278.058,333.881 277.391,333.214 278.5,331.5C 276.128,330.653 274.128,329.319 272.5,327.5C 273.979,325.235 275.313,322.901 276.5,320.5C 275.583,317.371 273.749,317.038 271,319.5C 270.617,318.944 270.117,318.611 269.5,318.5 Z"/></g>
<g><path style="opacity:1" fill="#f6c0b6" d="M 290.5,301.5 C 293.479,303.812 296.146,306.479 298.5,309.5C 299.689,310.429 301.022,310.762 302.5,310.5C 302.762,309.022 302.429,307.689 301.5,306.5C 299.429,304.815 297.429,303.148 295.5,301.5C 299.176,301.73 301.843,302.73 303.5,304.5C 303.5,306.167 303.5,307.833 303.5,309.5C 304.5,309.5 305.5,309.5 306.5,309.5C 306.286,311.144 306.62,312.644 307.5,314C 306.551,314.617 305.718,314.451 305,313.5C 305.795,318.428 305.462,323.094 304,327.5C 302.612,326.446 301.112,326.28 299.5,327C 301.158,327.725 301.658,328.892 301,330.5C 300.396,328.314 299.23,328.148 297.5,330C 299.32,330.979 300.487,332.479 301,334.5C 301.44,332.924 302.273,331.59 303.5,330.5C 302.391,328.786 303.058,328.119 305.5,328.5C 305.693,324.551 306.193,324.551 307,328.5C 307.893,327.289 308.726,327.289 309.5,328.5C 306.558,329.856 304.558,331.523 303.5,333.5C 305.108,334.242 306.775,334.409 308.5,334C 307.299,334.903 306.465,336.069 306,337.5C 304.111,336.903 302.278,336.569 300.5,336.5C 299.833,335.167 299.167,333.833 298.5,332.5C 297.833,333.5 297.167,334.5 296.5,335.5C 294.998,331.626 294.331,331.959 294.5,336.5C 292.856,336.286 291.356,336.62 290,337.5C 289.667,336.5 289.333,335.5 289,334.5C 288.667,334.833 288.333,335.167 288,335.5C 285.942,334.891 285.109,333.891 285.5,332.5C 284.914,332.709 284.414,333.043 284,333.5C 284,332.167 284,330.833 284,329.5C 281.821,330.261 279.655,329.928 277.5,328.5C 278.305,326.085 279.305,323.751 280.5,321.5C 279.595,319.362 278.595,317.195 277.5,315C 278.416,314.626 279.25,314.126 280,313.5C 280.612,310.559 282.279,308.559 285,307.5C 286.787,308.563 288.621,309.063 290.5,309C 289.167,308 289.167,307 290.5,306C 289.377,304.956 288.044,304.29 286.5,304C 288.437,303.878 289.77,303.045 290.5,301.5 Z"/></g>
<g><path style="opacity:1" fill="#ea5e65" d="M 315.5,355.5 C 314.473,357.194 313.139,358.527 311.5,359.5C 309.585,359.784 307.919,359.451 306.5,358.5C 309.254,357.054 312.254,356.054 315.5,355.5 Z"/></g>
<g><path style="opacity:1" fill="#fdfcfd" d="M 292.5,360.5 C 292.608,364.247 292.108,367.914 291,371.5C 280.51,397.49 262.01,405.657 235.5,396C 226.336,388.822 220.336,379.656 217.5,368.5C 217.5,366.833 217.5,365.167 217.5,363.5C 220.206,363.575 222.873,363.908 225.5,364.5C 227.197,372.071 230.864,378.571 236.5,384C 253.478,390.785 267.978,387.285 280,373.5C 281.352,370.28 282.186,366.947 282.5,363.5C 285.701,362.077 289.034,361.077 292.5,360.5 Z"/></g>
<g><path style="opacity:1" fill="#fadad8" d="M 282.5,363.5 C 282.186,366.947 281.352,370.28 280,373.5C 267.978,387.285 253.478,390.785 236.5,384C 230.864,378.571 227.197,372.071 225.5,364.5C 239.948,364.605 254.614,364.438 269.5,364C 272.658,363.446 275.825,362.946 279,362.5C 280.385,362.514 281.551,362.848 282.5,363.5 Z"/></g>
<g><path style="opacity:1" fill="#957bb2" d="M 296.5,459.5 C 295.167,459.5 293.833,459.5 292.5,459.5C 291.196,434.383 295.696,410.716 306,388.5C 308.797,384.701 311.964,381.201 315.5,378C 317.783,375.81 320.449,375.143 323.5,376C 314.763,381.745 308.597,389.578 305,399.5C 302.666,409.503 300.333,419.503 298,429.5C 296.572,439.606 296.072,449.606 296.5,459.5 Z"/></g>
<g><path style="opacity:1" fill="#dd7185" d="M 341.5,395.5 C 341.771,400.434 341.104,405.1 339.5,409.5C 339.532,404.609 340.199,399.943 341.5,395.5 Z"/></g>
</svg>
